<?xml version="1.0" encoding="UTF-8"?>
<svg xmlns="http://www.w3.org/2000/svg" xmlns:xlink="http://www.w3.org/1999/xlink" version="1.2" >
<font id="Intervogue Med">
<font-face  font-family="Intervogue" units-per-em="1000" ascent="740" descent="-220" font-style="normal" font-weight="500" font-stretch="normal" cap-height="710" x-height="445" underline-position="-75" underline-thickness="50" />
<missing-glyph  horiz-adv-x="600" d="M10 65 L590 65 L590 645 L10 645 L10 65 Z M161 267 L254 360 L161 453 L207 499 L300 406 L393 499 L439 453 L346 360 L439 267 L393 221 L300 314 L207 221 L161 267 Z " />
<glyph glyph-name="NULL" d="" />
<glyph glyph-name="CR" unicode="&#xd;" horiz-adv-x="250" d="" />
<glyph glyph-name="space" unicode="&#x20;" horiz-adv-x="300" d="" />
<glyph glyph-name="exclam" unicode="&#x21;" horiz-adv-x="255" d="M85 220 L170 220 L183 710 L73 710 L85 220 Z M128 -10 C167 -10 195 20 195 58 C195 96 167 125 128 125 C89 125 60 96 60 58 C60 20 89 -10 128 -10 L128 -10 Z " />
<glyph glyph-name="quotedbl" unicode="&#x22;" horiz-adv-x="453" d="M80 440 L180 440 L180 710 L80 710 L80 440 Z M273 440 L373 440 L373 710 L273 710 L273 440 Z " />
<glyph glyph-name="numbersign" unicode="&#x23;" horiz-adv-x="545" d="M495 424 L495 488 L419 488 L450 710 L385 710 L354 488 L229 488 L260 710 L195 710 L164 488 L50 488 L50 424 L155 424 L135 287 L50 287 L50 223 L126 223 L95 0 L160 0 L191 223 L316 223 L285 0 L350 0 L381 223 L495 223 L495 287 L390 287 L410 424 L495 424 Z M325 287 L200 287 L220 424 L345 424 L325 287 Z " />
<glyph glyph-name="dollar" unicode="&#x24;" horiz-adv-x="545" d="M505 190 C505 302 421 359 309 410 L309 634 C391 626 418 562 418 562 L498 602 C498 602 455 716 309 724 L309 800 L261 800 L261 724 C143 713 70 638 70 539 C70 436 153 377 261 323 L261 77 C156 88 121 193 121 193 L40 149 C40 149 87 -3 261 -14 L261 -100 L309 -100 L309 -14 C432 -2 505 85 505 190 L505 190 Z M175 540 C175 586 207 622 261 632 L261 434 C208 464 175 497 175 540 L175 540 Z M309 79 L309 299 C364 268 400 235 400 186 C400 134 368 90 309 79 L309 79 Z " />
<glyph glyph-name="percent" unicode="&#x25;" horiz-adv-x="880" d="M222 385 C318 385 393 460 393 555 C393 651 318 725 222 725 C125 725 50 651 50 555 C50 460 125 385 222 385 L222 385 Z M215 0 L272 0 L665 710 L609 710 L215 0 Z M222 462 C170 462 129 504 129 555 C129 607 170 648 222 648 C273 648 314 607 314 555 C314 504 273 462 222 462 L222 462 Z M659 -15 C755 -15 830 60 830 155 C830 251 755 325 659 325 C562 325 487 251 487 155 C487 60 562 -15 659 -15 L659 -15 Z M659 62 C607 62 566 104 566 155 C566 207 607 248 659 248 C710 248 751 207 751 155 C751 104 710 62 659 62 L659 62 Z " />
<glyph glyph-name="ampersand" unicode="&#x26;" horiz-adv-x="618" d="M590 360 L487 360 L406 233 L296 372 C382 447 418 503 418 570 C418 656 350 725 255 725 C161 725 93 655 93 568 C93 496 132 442 180 381 C80 298 38 236 38 155 C38 53 119 -15 215 -15 C290 -15 354 17 412 88 L481 0 L590 0 L463 161 L590 360 Z M255 646 C299 646 328 612 328 566 C328 525 307 490 246 436 C204 491 183 527 183 566 C183 612 212 646 255 646 L255 646 Z M229 70 C179 70 138 110 138 162 C138 209 159 251 231 316 L357 157 C316 94 276 71 229 70 L229 70 Z " />
<glyph glyph-name="quotesingle" unicode="&#x27;" horiz-adv-x="260" d="M80 440 L180 440 L180 710 L80 710 L80 440 Z " />
<glyph glyph-name="parenleft" unicode="&#x28;" horiz-adv-x="290" d="M250 0 C250 0 135 140 135 355 C135 570 250 710 250 710 L150 710 C150 710 40 578 40 355 C40 133 150 0 150 0 L250 0 Z " />
<glyph glyph-name="parenright" unicode="&#x29;" horiz-adv-x="290" d="M40 0 L140 0 C140 0 250 133 250 355 C250 578 140 710 140 710 L40 710 C40 710 155 570 155 355 C155 140 40 0 40 0 L40 0 Z " />
<glyph glyph-name="asterisk" unicode="&#x2a;" horiz-adv-x="451" d="M386 598 L351 658 L258 600 L261 710 L191 710 L194 600 L100 658 L65 598 L163 546 L65 493 L100 433 L194 491 L191 380 L261 380 L258 491 L351 433 L386 493 L289 545 L386 598 Z " />
<glyph glyph-name="plus" unicode="&#x2b;" horiz-adv-x="545" d="M485 357 L321 357 L321 522 L224 522 L224 357 L60 357 L60 263 L224 263 L224 97 L321 97 L321 263 L485 263 L485 357 Z " />
<glyph glyph-name="comma" unicode="&#x2c;" horiz-adv-x="255" d="M60 -150 L150 -150 L184 120 L83 120 L60 -150 Z " />
<glyph glyph-name="hyphen" unicode="&#x2d;" horiz-adv-x="440" d="M60 262 L380 262 L380 356 L60 356 L60 262 Z " />
<glyph glyph-name="period" unicode="&#x2e;" horiz-adv-x="255" d="M128 -10 C167 -10 195 20 195 58 C195 96 167 125 128 125 C89 125 60 96 60 58 C60 20 89 -10 128 -10 L128 -10 Z " />
<glyph glyph-name="slash" unicode="&#x2f;" horiz-adv-x="530" d="M10 -100 L90 -100 L520 800 L436 800 L10 -100 Z " />
<glyph glyph-name="zero" unicode="0" horiz-adv-x="545" d="M273 -15 C410 -15 495 109 495 355 C495 602 410 725 273 725 C136 725 50 602 50 355 C50 109 136 -15 273 -15 L273 -15 Z M273 84 C197 84 155 176 155 355 C155 535 197 626 273 626 C348 626 390 535 390 355 C390 176 348 84 273 84 L273 84 Z " />
<glyph glyph-name="one" unicode="1" horiz-adv-x="370" d="M155 0 L260 0 L260 710 L40 710 L40 616 L155 616 L155 0 Z " />
<glyph glyph-name="two" unicode="2" horiz-adv-x="510" d="M25 0 L455 0 L455 94 L205 94 L379 332 C426 397 460 457 460 528 C460 640 374 725 253 725 C136 725 60 653 30 548 L121 513 C140 586 185 629 247 629 C312 629 355 583 355 521 C355 475 334 437 295 382 L25 0 Z " />
<glyph glyph-name="three" unicode="3" horiz-adv-x="490" d="M327 367 C393 401 428 461 428 531 C428 641 344 725 216 725 C133 725 63 682 26 625 L92 567 C125 608 162 630 209 630 C274 630 323 582 323 521 C323 457 281 400 173 400 L135 400 L135 330 L173 330 C287 330 335 273 335 201 C335 134 281 80 209 80 C155 80 113 108 80 155 L10 102 C48 33 123 -15 216 -15 C352 -15 440 72 440 190 C440 268 401 332 327 367 L327 367 Z " />
<glyph glyph-name="four" unicode="4" horiz-adv-x="545" d="M520 293 L420 293 L420 710 L310 710 L25 259 L25 204 L320 204 L320 0 L420 0 L420 204 L520 204 L520 293 Z M132 293 L320 595 L320 293 L132 293 Z " />
<glyph glyph-name="five" unicode="5" horiz-adv-x="530" d="M268 435 C227 435 195 424 171 409 L174 616 L440 616 L440 710 L80 710 L75 280 L138 280 C138 280 164 344 246 344 C325 344 380 289 380 214 C380 137 324 82 247 82 C186 82 137 120 114 166 L35 112 C74 41 150 -15 251 -15 C383 -15 480 82 480 217 C480 342 392 435 268 435 L268 435 Z " />
<glyph glyph-name="six" unicode="6" horiz-adv-x="545" d="M283 435 C257 435 235 431 215 422 L354 710 L247 710 L76 347 C56 303 43 255 43 213 C43 86 144 -15 273 -15 C404 -15 503 85 503 215 C503 342 409 435 283 435 L283 435 Z M273 82 C199 82 143 139 143 213 C143 287 199 344 273 344 C347 344 403 287 403 213 C403 139 347 82 273 82 L273 82 Z " />
<glyph glyph-name="seven" unicode="7" horiz-adv-x="475" d="M25 710 L25 611 L316 611 L90 0 L202 0 L455 710 L25 710 Z " />
<glyph glyph-name="eight" unicode="8" horiz-adv-x="545" d="M392 369 C447 401 483 458 483 528 C483 640 393 725 273 725 C153 725 63 640 63 528 C63 458 99 402 154 369 C91 335 50 273 50 195 C50 76 145 -15 273 -15 C400 -15 495 76 495 195 C495 273 454 335 392 369 L392 369 Z M273 629 C336 629 383 582 383 520 C383 458 336 412 273 412 C209 412 163 458 163 520 C163 582 209 629 273 629 L273 629 Z M273 82 C203 82 150 135 150 203 C150 271 203 324 273 324 C342 324 395 271 395 203 C395 135 342 82 273 82 L273 82 Z " />
<glyph glyph-name="nine" unicode="9" horiz-adv-x="545" d="M272 725 C141 725 42 625 42 495 C42 368 136 275 262 275 C288 275 310 279 330 288 L191 0 L298 0 L469 363 C489 407 502 455 502 497 C502 624 401 725 272 725 L272 725 Z M142 497 C142 571 198 628 272 628 C346 628 402 571 402 497 C402 423 346 366 272 366 C198 366 142 423 142 497 L142 497 Z " />
<glyph glyph-name="colon" unicode="&#x3a;" horiz-adv-x="255" d="M128 320 C167 320 195 350 195 388 C195 426 167 455 128 455 C89 455 60 426 60 388 C60 350 89 320 128 320 L128 320 Z M128 -10 C167 -10 195 20 195 58 C195 96 167 125 128 125 C89 125 60 96 60 58 C60 20 89 -10 128 -10 L128 -10 Z " />
<glyph glyph-name="semicolon" unicode="&#x3b;" horiz-adv-x="255" d="M128 320 C167 320 195 350 195 388 C195 426 167 455 128 455 C89 455 60 426 60 388 C60 350 89 320 128 320 L128 320 Z M60 -150 L150 -150 L184 120 L83 120 L60 -150 Z " />
<glyph glyph-name="less" unicode="&#x3c;" horiz-adv-x="545" d="M485 145 L485 247 L199 355 L485 464 L485 565 L60 390 L60 320 L485 145 Z " />
<glyph glyph-name="equal" unicode="&#x3d;" horiz-adv-x="545" d="M60 363 L485 363 L485 452 L60 452 L60 363 Z M60 168 L485 168 L485 257 L60 257 L60 168 Z " />
<glyph glyph-name="greater" unicode="&#x3e;" horiz-adv-x="545" d="M60 145 L485 320 L485 390 L60 565 L60 464 L346 355 L60 247 L60 145 Z " />
<glyph glyph-name="question" unicode="&#x3f;" horiz-adv-x="495" d="M192 220 L297 220 L392 379 C432 446 455 495 455 550 C455 649 379 725 253 725 C113 725 40 641 40 525 L138 525 C138 593 182 636 249 636 C314 636 353 595 353 546 C353 509 335 473 306 424 L192 220 Z M200 -10 C239 -10 268 20 268 58 C268 96 239 125 200 125 C161 125 133 96 133 58 C133 20 161 -10 200 -10 L200 -10 Z " />
<glyph glyph-name="at" unicode="&#x40;" horiz-adv-x="1060" d="M530 725 C260 725 50 515 50 245 C50 -27 260 -230 530 -230 C587 -230 636 -221 678 -205 L653 -133 C616 -145 577 -151 530 -151 C304 -151 130 18 130 245 C130 471 304 646 530 646 C759 646 935 482 935 245 C935 99 861 26 789 26 C722 26 688 86 704 163 L760 424 L677 424 L660 352 C640 404 594 440 524 440 C425 440 345 373 321 264 C298 155 369 44 488 44 C546 44 587 69 616 110 C621 23 683 -48 776 -48 C911 -48 1010 75 1010 245 C1010 525 800 725 530 725 L530 725 Z M507 126 C437 126 393 190 407 255 C421 320 472 358 531 358 C602 358 645 294 632 229 C618 164 566 126 507 126 L507 126 Z " />
<glyph glyph-name="A" unicode="A" horiz-adv-x="740" d="M603 0 L730 0 L370 745 L10 0 L127 0 L218 197 L514 197 L603 0 Z M262 291 L368 521 L472 291 L262 291 Z " />
<glyph glyph-name="B" unicode="B" horiz-adv-x="535" d="M363 368 C428 398 465 459 465 528 C465 628 390 710 270 710 L80 710 L80 0 L267 0 C400 0 485 84 485 195 C485 275 439 339 363 368 L363 368 Z M243 619 C315 619 358 575 358 515 C358 455 315 412 243 412 L190 412 L190 619 L243 619 Z M249 92 L190 92 L190 323 L249 323 C330 323 378 275 378 207 C378 140 330 92 249 92 L249 92 Z " />
<glyph glyph-name="C" unicode="C" horiz-adv-x="766" d="M413 -15 C549 -15 660 54 726 161 L637 219 C591 141 510 89 413 89 C265 89 150 206 150 355 C150 505 265 621 413 621 C506 621 583 573 630 502 L716 563 C650 662 543 725 413 725 C203 725 40 563 40 355 C40 147 203 -15 413 -15 L413 -15 Z " />
<glyph glyph-name="D" unicode="D" horiz-adv-x="650" d="M80 0 L260 0 C491 0 610 153 610 355 C610 558 491 710 260 710 L80 710 L80 0 Z M190 102 L190 609 L260 609 C423 609 500 503 500 355 C500 207 423 102 260 102 L190 102 Z " />
<glyph glyph-name="E" unicode="E" horiz-adv-x="535" d="M190 102 L190 322 L485 322 L485 416 L190 416 L190 609 L460 609 L460 710 L80 710 L80 0 L490 0 L490 102 L190 102 Z " />
<glyph glyph-name="F" unicode="F" horiz-adv-x="525" d="M485 416 L190 416 L190 609 L460 609 L460 710 L80 710 L80 0 L190 0 L190 322 L485 322 L485 416 Z " />
<glyph glyph-name="G" unicode="G" horiz-adv-x="808" d="M766 375 L284 375 L284 276 L655 276 C628 167 538 89 413 89 C265 89 150 206 150 355 C150 505 265 621 418 621 C498 621 567 590 615 542 L687 619 C621 684 527 725 418 725 C204 725 40 563 40 355 C40 147 203 -15 413 -15 C619 -15 768 142 768 345 C768 360 766 375 766 375 L766 375 Z " />
<glyph glyph-name="H" unicode="H" horiz-adv-x="760" d="M570 710 L570 423 L190 423 L190 710 L80 710 L80 0 L190 0 L190 319 L570 319 L570 0 L680 0 L680 710 L570 710 Z " />
<glyph glyph-name="I" unicode="I" horiz-adv-x="290" d="M90 0 L200 0 L200 710 L90 710 L90 0 Z " />
<glyph glyph-name="J" unicode="J" horiz-adv-x="494" d="M199 -15 C332 -15 422 76 422 223 L422 710 L312 710 L312 225 C312 146 267 94 199 94 C156 94 123 117 102 150 L10 94 C50 28 113 -15 199 -15 L199 -15 Z " />
<glyph glyph-name="K" unicode="K" horiz-adv-x="620" d="M610 0 L297 368 L590 710 L452 710 L190 395 L190 710 L80 710 L80 0 L190 0 L190 335 L471 0 L610 0 Z " />
<glyph glyph-name="L" unicode="L" horiz-adv-x="505" d="M190 104 L190 710 L80 710 L80 0 L490 0 L490 104 L190 104 Z " />
<glyph glyph-name="M" unicode="M" horiz-adv-x="840" d="M70 0 L175 0 L191 435 L420 34 L649 435 L665 0 L770 0 L735 745 L420 224 L105 745 L70 0 Z " />
<glyph glyph-name="N" unicode="N" horiz-adv-x="740" d="M660 -35 L660 710 L552 710 L552 237 L80 745 L80 0 L189 0 L189 474 L660 -35 Z " />
<glyph glyph-name="O" unicode="O" horiz-adv-x="825" d="M413 -15 C622 -15 785 147 785 355 C785 563 622 725 413 725 C203 725 40 563 40 355 C40 147 203 -15 413 -15 L413 -15 Z M413 89 C265 89 150 206 150 355 C150 505 265 621 413 621 C561 621 675 505 675 355 C675 206 561 89 413 89 L413 89 Z " />
<glyph glyph-name="P" unicode="P" horiz-adv-x="535" d="M273 710 L80 710 L80 0 L190 0 L190 293 L273 293 C408 293 495 387 495 501 C495 616 408 710 273 710 L273 710 Z M263 387 L190 387 L190 614 L263 614 C339 614 388 565 388 500 C388 436 339 387 263 387 L263 387 Z " />
<glyph glyph-name="Q" unicode="Q" horiz-adv-x="825" d="M785 355 C785 563 622 725 413 725 C203 725 40 563 40 355 C40 164 178 12 363 -12 L363 -200 L463 -200 L463 -12 C647 12 785 164 785 355 L785 355 Z M463 94 L463 235 L363 235 L363 94 C240 117 150 223 150 355 C150 505 265 621 413 621 C561 621 675 505 675 355 C675 223 586 117 463 94 L463 94 Z " />
<glyph glyph-name="R" unicode="R" horiz-adv-x="575" d="M444 0 L575 0 L344 307 C438 333 495 411 495 504 C495 617 409 710 275 710 L80 710 L80 0 L190 0 L190 298 L227 298 L444 0 Z M190 614 L260 614 C338 614 388 564 388 498 C388 432 338 382 260 382 L190 382 L190 614 Z " />
<glyph glyph-name="S" unicode="S" horiz-adv-x="535" d="M272 -15 C410 -15 495 77 495 190 C495 304 410 361 297 414 C219 451 170 487 170 540 C170 591 211 630 281 630 C361 630 412 575 412 575 L475 651 C475 651 400 725 279 725 C145 725 60 646 60 539 C60 433 140 372 250 320 C333 280 385 246 385 186 C385 129 344 81 270 81 C175 81 106 169 106 169 L35 104 C35 104 115 -15 272 -15 L272 -15 Z " />
<glyph glyph-name="T" unicode="T" horiz-adv-x="520" d="M505 710 L15 710 L15 606 L205 606 L205 0 L315 0 L315 606 L505 606 L505 710 Z " />
<glyph glyph-name="U" unicode="U" horiz-adv-x="655" d="M328 -15 C479 -15 583 89 583 253 L583 710 L473 710 L473 255 C473 157 415 94 328 94 C240 94 183 157 183 255 L183 710 L73 710 L73 253 C73 89 176 -15 328 -15 L328 -15 Z " />
<glyph glyph-name="V" unicode="V" horiz-adv-x="590" d="M295 -35 L580 710 L471 710 L300 239 L129 710 L10 710 L295 -35 Z " />
<glyph glyph-name="W" unicode="W" horiz-adv-x="1040" d="M1030 710 L919 710 L734 223 L525 725 L317 225 L132 710 L10 710 L300 -35 L520 483 L740 -35 L1030 710 Z " />
<glyph glyph-name="X" unicode="X" horiz-adv-x="610" d="M10 0 L138 0 L305 266 L473 0 L600 0 L369 363 L590 710 L463 710 L305 461 L148 710 L20 710 L242 363 L10 0 Z " />
<glyph glyph-name="Y" unicode="Y" horiz-adv-x="600" d="M245 0 L355 0 L355 343 L600 710 L480 710 L305 451 L130 710 L0 710 L245 343 L245 0 Z " />
<glyph glyph-name="Z" unicode="Z" horiz-adv-x="675" d="M40 0 L625 0 L625 102 L232 102 L635 710 L50 710 L50 609 L443 609 L40 0 Z " />
<glyph glyph-name="bracketleft" unicode="&#x5b;" horiz-adv-x="340" d="M280 631 L280 710 L70 710 L70 0 L280 0 L280 79 L165 79 L165 631 L280 631 Z " />
<glyph glyph-name="backslash" unicode="&#x5c;" horiz-adv-x="530" d="M520 -100 L94 800 L10 800 L440 -100 L520 -100 Z " />
<glyph glyph-name="bracketright" unicode="&#x5d;" horiz-adv-x="340" d="M260 710 L50 710 L50 631 L165 631 L165 79 L50 79 L50 0 L260 0 L260 710 Z " />
<glyph glyph-name="asciicircum" unicode="&#x5e;" horiz-adv-x="545" d="M495 350 L308 710 L238 710 L50 350 L148 350 L273 599 L398 350 L495 350 Z " />
<glyph glyph-name="underscore" unicode="&#x5f;" horiz-adv-x="545" d="M0 -104 L545 -104 L545 -25 L0 -25 L0 -104 Z " />
<glyph glyph-name="grave" unicode="&#x60;" horiz-adv-x="600" d="M193 570 L170 710 L70 710 L104 570 L193 570 Z " />
<glyph glyph-name="a" unicode="a" horiz-adv-x="578" d="M418 445 L415 376 C382 428 330 460 258 460 C131 460 33 356 33 223 C33 90 131 -15 258 -15 C330 -15 382 18 415 70 L418 0 L513 0 L513 445 L418 445 Z M273 82 C194 82 133 144 133 223 C133 301 194 364 273 364 C351 364 413 301 413 223 C413 144 351 82 273 82 L273 82 Z " />
<glyph glyph-name="b" unicode="b" horiz-adv-x="578" d="M320 460 C249 460 197 429 165 378 L165 740 L65 740 L65 0 L160 0 L163 70 C196 18 248 -15 320 -15 C447 -15 545 90 545 223 C545 356 447 460 320 460 L320 460 Z M305 82 C227 82 165 144 165 223 C165 301 227 364 305 364 C384 364 445 301 445 223 C445 144 384 82 305 82 L305 82 Z " />
<glyph glyph-name="c" unicode="c" horiz-adv-x="490" d="M273 -15 C360 -15 431 31 473 97 L390 146 C366 107 324 82 273 82 C194 82 133 144 133 223 C133 301 194 364 273 364 C321 364 360 341 386 306 L466 361 C423 420 355 460 273 460 C138 460 33 356 33 223 C33 90 138 -15 273 -15 L273 -15 Z " />
<glyph glyph-name="d" unicode="d" horiz-adv-x="578" d="M413 740 L413 378 C381 429 329 460 258 460 C131 460 33 356 33 223 C33 90 131 -15 258 -15 C330 -15 382 18 415 70 L418 0 L513 0 L513 740 L413 740 Z M273 82 C194 82 133 144 133 223 C133 301 194 364 273 364 C351 364 413 301 413 223 C413 144 351 82 273 82 L273 82 Z " />
<glyph glyph-name="e" unicode="e" horiz-adv-x="535" d="M503 233 C503 358 405 460 270 460 C136 460 33 356 33 223 C33 90 138 -15 273 -15 C368 -15 445 37 484 111 L397 150 C376 111 330 79 273 79 C199 79 142 132 134 206 L501 206 C501 206 503 218 503 233 L503 233 Z M270 374 C334 374 379 339 397 280 L141 280 C160 339 209 374 270 374 L270 374 Z " />
<glyph glyph-name="f" unicode="f" horiz-adv-x="350" d="M296 661 C329 661 350 649 350 649 L350 743 C350 743 328 755 281 755 C179 755 115 689 115 579 L115 446 L25 446 L25 352 L115 352 L115 0 L215 0 L215 352 L325 352 L325 446 L215 446 L215 572 C215 627 244 661 296 661 L296 661 Z " />
<glyph glyph-name="g" unicode="g" horiz-adv-x="578" d="M418 445 L415 377 C382 428 330 460 258 460 C131 460 33 356 33 228 C33 99 131 -5 258 -5 C329 -5 381 26 413 76 L413 -8 C413 -95 353 -146 276 -146 C203 -146 150 -104 150 -48 L50 -48 C50 -158 148 -235 275 -235 C409 -235 513 -147 513 -8 L513 445 L418 445 Z M273 84 C194 84 133 147 133 225 C133 304 194 366 273 366 C351 366 413 304 413 225 C413 147 351 84 273 84 L273 84 Z " />
<glyph glyph-name="h" unicode="h" horiz-adv-x="498" d="M300 460 C242 460 202 433 165 389 L165 740 L65 740 L65 0 L165 0 L165 291 C193 338 229 363 267 363 C311 363 340 338 340 282 L340 0 L440 0 L440 314 C440 407 384 460 300 460 L300 460 Z " />
<glyph glyph-name="i" unicode="i" horiz-adv-x="245" d="M123 555 C162 555 190 584 190 620 C190 656 162 685 123 685 C84 685 55 656 55 620 C55 584 84 555 123 555 L123 555 Z M73 0 L173 0 L173 445 L73 445 L73 0 Z " />
<glyph glyph-name="j" unicode="j" horiz-adv-x="245" d="M123 555 C162 555 190 584 190 620 C190 656 162 685 123 685 C84 685 55 656 55 620 C55 584 84 555 123 555 L123 555 Z M73 -220 L173 -220 L173 445 L73 445 L73 -220 Z " />
<glyph glyph-name="k" unicode="k" horiz-adv-x="443" d="M438 0 L251 237 L428 445 L309 445 L165 264 L165 740 L65 740 L65 0 L165 0 L165 200 L318 0 L438 0 Z " />
<glyph glyph-name="l" unicode="l" horiz-adv-x="245" d="M73 0 L173 0 L173 740 L73 740 L73 0 Z " />
<glyph glyph-name="m" unicode="m" horiz-adv-x="773" d="M575 460 C512 460 469 428 430 376 C410 430 363 460 300 460 C241 460 200 432 163 387 L160 445 L65 445 L65 0 L165 0 L165 291 C193 338 229 363 267 363 C311 363 340 338 340 282 L340 0 L440 0 L440 291 C468 338 504 363 542 363 C586 363 615 338 615 282 L615 0 L715 0 L715 314 C715 407 659 460 575 460 L575 460 Z " />
<glyph glyph-name="n" unicode="n" horiz-adv-x="498" d="M300 460 C241 460 200 432 163 387 L160 445 L65 445 L65 0 L165 0 L165 291 C193 338 229 363 267 363 C311 363 340 338 340 282 L340 0 L440 0 L440 314 C440 407 384 460 300 460 L300 460 Z " />
<glyph glyph-name="o" unicode="o" horiz-adv-x="545" d="M273 -15 C407 -15 513 90 513 223 C513 356 407 460 273 460 C138 460 33 356 33 223 C33 90 138 -15 273 -15 L273 -15 Z M273 82 C194 82 133 144 133 223 C133 301 194 364 273 364 C351 364 413 301 413 223 C413 144 351 82 273 82 L273 82 Z " />
<glyph glyph-name="p" unicode="p" horiz-adv-x="578" d="M320 460 C248 460 196 428 163 376 L160 445 L65 445 L65 -220 L165 -220 L165 67 C197 17 249 -15 320 -15 C447 -15 545 90 545 223 C545 356 447 460 320 460 L320 460 Z M305 82 C227 82 165 144 165 223 C165 301 227 364 305 364 C384 364 445 301 445 223 C445 144 384 82 305 82 L305 82 Z " />
<glyph glyph-name="q" unicode="q" horiz-adv-x="578" d="M418 445 L415 376 C382 428 330 460 258 460 C131 460 33 356 33 223 C33 90 131 -15 258 -15 C329 -15 381 17 413 67 L413 -220 L513 -220 L513 445 L418 445 Z M273 82 C194 82 133 144 133 223 C133 301 194 364 273 364 C351 364 413 301 413 223 C413 144 351 82 273 82 L273 82 Z " />
<glyph glyph-name="r" unicode="r" horiz-adv-x="398" d="M274 460 C229 460 197 439 163 391 L160 445 L65 445 L65 0 L165 0 L165 290 C193 349 218 369 248 369 C274 369 292 354 307 324 L398 361 C375 422 336 460 274 460 L274 460 Z " />
<glyph glyph-name="s" unicode="s" horiz-adv-x="382" d="M198 -15 C287 -15 350 43 350 122 C350 196 294 237 219 269 C170 289 147 307 147 336 C147 360 165 380 204 380 C253 380 292 343 292 343 L342 409 C342 409 291 460 202 460 C114 460 51 407 51 332 C51 263 104 220 176 190 C229 167 254 148 254 116 C254 89 236 66 197 66 C136 66 88 124 88 124 L32 67 C32 67 87 -15 198 -15 L198 -15 Z " />
<glyph glyph-name="t" unicode="t" horiz-adv-x="350" d="M325 446 L215 446 L215 665 L115 665 L115 446 L25 446 L25 352 L115 352 L115 0 L215 0 L215 352 L325 352 L325 446 Z " />
<glyph glyph-name="u" unicode="u" horiz-adv-x="490" d="M245 -15 C353 -15 433 60 433 173 L433 445 L333 445 L333 171 C333 117 296 83 245 83 C194 83 158 117 158 171 L158 445 L58 445 L58 173 C58 60 138 -15 245 -15 L245 -15 Z " />
<glyph glyph-name="v" unicode="v" horiz-adv-x="460" d="M230 -35 L455 445 L354 445 L235 174 L117 445 L5 445 L230 -35 Z " />
<glyph glyph-name="w" unicode="w" horiz-adv-x="695" d="M690 445 L589 445 L478 175 L353 455 L228 175 L117 445 L5 445 L215 -35 L348 251 L480 -35 L690 445 Z " />
<glyph glyph-name="x" unicode="x" horiz-adv-x="425" d="M5 0 L119 0 L213 145 L307 0 L420 0 L270 227 L415 445 L302 445 L213 308 L124 445 L10 445 L156 227 L5 0 Z " />
<glyph glyph-name="y" unicode="y" horiz-adv-x="460" d="M354 445 L234 146 L117 445 L5 445 L180 24 L77 -220 L179 -220 L455 445 L354 445 Z " />
<glyph glyph-name="z" unicode="z" horiz-adv-x="430" d="M28 0 L393 0 L393 89 L185 89 L403 445 L38 445 L38 356 L246 356 L28 0 Z " />
<glyph glyph-name="braceleft" unicode="&#x7b;" horiz-adv-x="350" d="M282 631 L300 631 L300 710 L261 710 C165 710 110 658 110 574 C110 513 120 483 120 440 C120 412 104 395 74 395 L50 395 L50 316 L74 316 C104 316 120 298 120 270 C120 227 110 197 110 136 C110 53 165 0 261 0 L300 0 L300 79 L282 79 C235 79 205 108 205 151 C205 203 215 233 215 281 C215 318 197 344 167 355 C197 366 215 393 215 430 C215 477 205 507 205 559 C205 603 235 631 282 631 L282 631 Z " />
<glyph glyph-name="bar" unicode="&#x7c;" horiz-adv-x="275" d="M90 -100 L185 -100 L185 800 L90 800 L90 -100 Z " />
<glyph glyph-name="braceright" unicode="&#x7d;" horiz-adv-x="350" d="M276 395 C246 395 230 412 230 440 C230 483 240 513 240 574 C240 658 185 710 89 710 L50 710 L50 631 L68 631 C115 631 145 603 145 559 C145 507 135 477 135 430 C135 393 153 366 183 355 C153 344 135 318 135 281 C135 233 145 203 145 151 C145 108 115 79 68 79 L50 79 L50 0 L89 0 C185 0 240 53 240 136 C240 197 230 227 230 270 C230 298 246 316 276 316 L300 316 L300 395 L276 395 Z " />
<glyph glyph-name="asciitilde" unicode="&#x7e;" horiz-adv-x="545" d="M60 257 C60 257 93 286 150 286 C249 286 299 241 395 241 C453 241 485 276 485 276 L485 364 C485 364 453 335 395 335 C296 335 247 380 150 380 C93 380 60 345 60 345 L60 257 Z " />
<glyph glyph-name="exclamdown" unicode="&#xa1;" horiz-adv-x="255" d="M128 500 C89 500 60 470 60 432 C60 394 89 365 128 365 C167 365 195 394 195 432 C195 470 167 500 128 500 L128 500 Z M85 270 L73 -220 L183 -220 L170 270 L85 270 Z " />
<glyph glyph-name="cent" unicode="&#xa2;" horiz-adv-x="545" d="M493 362 L411 411 C390 378 355 354 312 348 L312 628 C352 623 384 601 406 571 L486 626 C446 680 386 719 312 724 L312 800 L264 800 L264 723 C143 710 53 611 53 488 C53 365 143 265 264 252 L264 175 L312 175 L312 251 C391 257 454 301 493 362 L493 362 Z M153 488 C153 556 200 613 264 626 L264 350 C200 363 153 419 153 488 L153 488 Z " />
<glyph glyph-name="sterling" unicode="&#xa3;" horiz-adv-x="545" d="M273 217 C273 258 266 292 255 321 L410 321 L410 370 L235 370 C213 416 190 458 190 519 C190 580 229 629 300 629 C381 629 406 553 406 553 L495 591 C495 591 452 725 298 725 C165 725 85 639 85 519 C85 458 103 413 122 370 L40 370 L40 321 L144 321 C158 286 170 249 170 203 C170 114 124 64 70 57 L70 0 L475 0 L475 94 L229 94 C258 125 273 168 273 217 L273 217 Z " />
<glyph glyph-name="currency" unicode="&#xa4;" horiz-adv-x="545" d="M456 510 L513 567 L479 600 L422 543 C381 574 330 593 273 593 C216 593 164 574 124 542 L66 600 L33 567 L90 510 C54 469 33 415 33 355 C33 298 52 246 85 206 L33 154 L66 120 L118 172 C160 138 213 118 273 118 C332 118 386 138 427 172 L479 120 L513 154 L461 206 C494 247 513 298 513 355 C513 415 492 469 456 510 L456 510 Z M273 214 C194 214 133 277 133 355 C133 434 194 496 273 496 C351 496 413 434 413 355 C413 277 351 214 273 214 L273 214 Z " />
<glyph glyph-name="yen" unicode="&#xa5;" horiz-adv-x="545" d="M328 343 L530 710 L410 710 L278 454 L145 710 L15 710 L218 343 L218 322 L25 322 L25 273 L218 273 L218 202 L25 202 L25 153 L218 153 L218 0 L328 0 L328 153 L520 153 L520 202 L328 202 L328 273 L520 273 L520 322 L328 322 L328 343 Z " />
<glyph glyph-name="brokenbar" unicode="&#xa6;" horiz-adv-x="290" d="M90 480 L200 480 L200 800 L90 800 L90 480 Z M90 -100 L200 -100 L200 220 L90 220 L90 -100 Z " />
<glyph glyph-name="section" unicode="&#xa7;" horiz-adv-x="500" d="M450 347 C450 428 396 477 297 503 C230 520 186 543 186 585 C186 621 217 642 268 642 C331 642 367 591 367 591 L423 651 C423 651 366 725 264 725 C157 725 90 665 90 586 C90 543 107 512 135 488 C81 464 50 419 50 364 C50 283 104 233 204 208 C270 190 314 168 314 126 C314 90 283 68 233 68 C169 68 134 119 134 119 L78 59 C78 59 134 -15 237 -15 C343 -15 410 45 410 124 C410 167 393 198 365 222 C419 246 450 291 450 347 L450 347 Z M247 278 C182 297 143 323 143 367 C143 404 166 437 214 445 C227 440 240 436 254 432 C319 414 358 388 358 343 C358 307 334 274 287 265 C274 270 261 274 247 278 L247 278 Z " />
<glyph glyph-name="dieresis" unicode="&#xa8;" horiz-adv-x="600" d="M125 585 C157 585 180 609 180 640 C180 672 157 695 125 695 C94 695 70 672 70 640 C70 609 94 585 125 585 L125 585 Z M290 585 C322 585 345 609 345 640 C345 672 322 695 290 695 C259 695 235 672 235 640 C235 609 259 585 290 585 L290 585 Z " />
<glyph glyph-name="copyright" unicode="&#xa9;" horiz-adv-x="825" d="M413 -15 C621 -15 783 147 783 355 C783 563 621 725 413 725 C205 725 43 563 43 355 C43 147 205 -15 413 -15 L413 -15 Z M413 42 C237 42 100 179 100 355 C100 531 237 669 413 669 C589 669 725 531 725 355 C725 179 589 42 413 42 L413 42 Z M418 139 C497 139 561 180 599 240 L528 283 C506 247 466 223 418 223 C344 223 286 282 286 355 C286 429 344 488 418 488 C463 488 500 466 524 434 L593 482 C554 535 493 572 418 572 C295 572 199 476 199 355 C199 234 295 139 418 139 L418 139 Z " />
<glyph glyph-name="ordfeminine" unicode="&#xaa;" horiz-adv-x="316" d="M221 710 L219 682 C204 704 180 718 146 718 C82 718 33 664 33 594 C33 524 82 471 146 471 C180 471 204 484 219 507 L221 478 L284 478 L284 710 L221 710 Z M159 535 C125 535 100 561 100 594 C100 627 125 653 159 653 C192 653 217 627 217 594 C217 561 192 535 159 535 L159 535 Z " />
<glyph glyph-name="guillemotleft" unicode="&#xab;" horiz-adv-x="665" d="M325 165 L325 249 L188 355 L325 461 L325 545 L60 355 L325 165 Z M605 165 L605 249 L468 355 L605 461 L605 545 L340 355 L605 165 Z " />
<glyph glyph-name="logicalnot" unicode="&#xac;" horiz-adv-x="545" d="M60 263 L395 263 L395 170 L485 170 L485 357 L60 357 L60 263 Z " />
<glyph glyph-name="registered" unicode="&#xae;" horiz-adv-x="400" d="M200 723 C115 723 50 658 50 573 C50 488 115 423 200 423 C285 423 350 488 350 573 C350 658 285 723 200 723 L200 723 Z M200 461 C138 461 89 511 89 573 C89 636 138 686 200 686 C263 686 312 636 312 573 C312 511 263 461 200 461 L200 461 Z M254 601 C254 624 237 645 207 645 L150 645 L150 500 L188 500 L188 559 L193 559 L224 500 L269 500 L231 564 C246 571 254 586 254 601 L254 601 Z M201 614 C211 614 217 608 217 599 C217 590 211 584 201 584 L188 584 L188 614 L201 614 Z " />
<glyph glyph-name="macron" unicode="&#xaf;" horiz-adv-x="600" d="M60 616 L325 616 L325 685 L60 685 L60 616 Z " />
<glyph glyph-name="degree" unicode="&#xb0;" horiz-adv-x="463" d="M232 365 C335 365 413 444 413 545 C413 647 335 725 232 725 C129 725 50 647 50 545 C50 444 129 365 232 365 L232 365 Z M232 442 C176 442 130 488 130 545 C130 603 176 648 232 648 C287 648 333 603 333 545 C333 488 287 442 232 442 L232 442 Z " />
<glyph glyph-name="plusminus" unicode="&#xb1;" horiz-adv-x="545" d="M321 492 L321 657 L224 657 L224 492 L60 492 L60 398 L224 398 L224 232 L321 232 L321 398 L485 398 L485 492 L321 492 Z M60 73 L485 73 L485 167 L60 167 L60 73 Z " />
<glyph glyph-name="uni00B2" unicode="&#xb2;" horiz-adv-x="332" d="M50 352 L279 352 L279 415 L169 415 L241 515 C264 549 282 579 282 615 C282 674 236 717 172 717 C110 717 71 680 52 626 L113 601 C124 636 143 653 168 653 C194 653 211 635 211 610 C211 591 202 574 184 548 L50 352 Z " />
<glyph glyph-name="uni00B3" unicode="&#xb3;" horiz-adv-x="326" d="M225 536 C255 554 271 583 271 616 C271 673 229 717 159 717 C114 717 77 696 58 667 L101 627 C119 646 134 654 153 654 C180 654 200 633 200 609 C200 581 183 558 137 558 L114 558 L114 511 L137 511 C186 511 206 490 206 458 C206 431 183 409 154 409 C131 409 113 419 95 441 L50 405 C70 370 109 345 159 345 C232 345 276 390 276 450 C276 487 258 517 225 536 L225 536 Z " />
<glyph glyph-name="acute" unicode="&#xb4;" horiz-adv-x="600" d="M70 570 L159 570 L193 710 L93 710 L70 570 Z " />
<glyph glyph-name="uni00B5" unicode="&#xb5;" horiz-adv-x="498" d="M340 445 L340 171 C340 117 304 83 253 83 C202 83 165 117 165 171 L165 445 L65 445 L65 -220 L165 -220 L165 18 C191 -3 224 -15 263 -15 C363 -15 440 60 440 173 L440 445 L340 445 Z " />
<glyph glyph-name="paragraph" unicode="&#xb6;" horiz-adv-x="660" d="M40 516 C40 409 120 323 248 323 L270 323 L270 0 L365 0 L365 626 L485 626 L485 0 L580 0 L580 710 L248 710 C120 710 40 624 40 516 L40 516 Z " />
<glyph glyph-name="periodcentered" unicode="&#xb7;" horiz-adv-x="255" d="M128 288 C167 288 195 318 195 356 C195 394 167 423 128 423 C89 423 60 394 60 356 C60 318 89 288 128 288 L128 288 Z " />
<glyph glyph-name="cedilla" unicode="&#xb8;" horiz-adv-x="600" d="M178 -46 L198 0 L142 0 L100 -87 L130 -106 C130 -106 143 -96 161 -96 C183 -96 200 -108 200 -128 C200 -151 181 -165 154 -165 C119 -165 95 -144 95 -144 L70 -189 C70 -189 106 -220 161 -220 C231 -220 270 -177 270 -130 C270 -86 237 -47 178 -46 L178 -46 Z " />
<glyph glyph-name="uni00B9" unicode="&#xb9;" horiz-adv-x="233" d="M102 352 L173 352 L173 710 L40 710 L40 647 L102 647 L102 352 Z " />
<glyph glyph-name="ordmasculine" unicode="&#xba;" horiz-adv-x="316" d="M159 470 C229 470 284 524 284 594 C284 663 229 718 159 718 C88 718 33 663 33 594 C33 524 88 470 159 470 L159 470 Z M159 535 C125 535 100 561 100 594 C100 626 125 652 159 652 C192 652 217 626 217 594 C217 561 192 535 159 535 L159 535 Z " />
<glyph glyph-name="guillemotright" unicode="&#xbb;" horiz-adv-x="665" d="M60 165 L325 355 L60 545 L60 461 L197 355 L60 249 L60 165 Z M340 165 L605 355 L340 545 L340 461 L477 355 L340 249 L340 165 Z " />
<glyph glyph-name="onequarter" unicode="&#xbc;" horiz-adv-x="708" d="M102 352 L173 352 L173 710 L40 710 L40 647 L102 647 L102 352 Z M462 710 L68 0 L124 0 L518 710 L462 710 Z M658 153 L617 153 L617 358 L542 358 L403 131 L403 94 L550 94 L550 0 L617 0 L617 94 L658 94 L658 153 Z M473 153 L550 283 L550 153 L473 153 Z " />
<glyph glyph-name="onehalf" unicode="&#xbd;" horiz-adv-x="685" d="M102 352 L173 352 L173 710 L40 710 L40 647 L102 647 L102 352 Z M68 0 L124 0 L518 710 L462 710 L68 0 Z M403 0 L632 0 L632 63 L522 63 L594 163 C617 197 635 227 635 263 C635 322 589 365 525 365 C463 365 424 328 405 274 L466 249 C477 284 496 301 521 301 C547 301 564 283 564 258 C564 239 555 222 537 196 L403 0 Z " />
<glyph glyph-name="threequarters" unicode="&#xbe;" horiz-adv-x="801" d="M276 450 C276 487 258 517 225 536 C255 554 271 583 271 616 C271 673 229 717 159 717 C114 717 77 696 58 667 L101 627 C119 646 134 654 153 654 C180 654 200 633 200 609 C200 581 183 558 137 558 L114 558 L114 511 L137 511 C186 511 206 490 206 458 C206 431 183 409 154 409 C131 409 113 419 95 441 L50 405 C70 370 109 345 159 345 C232 345 276 390 276 450 L276 450 Z M555 710 L161 0 L217 0 L611 710 L555 710 Z M751 153 L710 153 L710 358 L635 358 L496 131 L496 94 L643 94 L643 0 L710 0 L710 94 L751 94 L751 153 Z M566 153 L643 283 L643 153 L566 153 Z " />
<glyph glyph-name="questiondown" unicode="&#xbf;" horiz-adv-x="495" d="M295 500 C256 500 227 470 227 432 C227 394 256 365 295 365 C334 365 362 394 362 432 C362 470 334 500 295 500 L295 500 Z M303 270 L198 270 L103 111 C63 44 40 -5 40 -60 C40 -159 116 -235 242 -235 C382 -235 455 -151 455 -35 L357 -35 C357 -103 313 -146 246 -146 C181 -146 142 -105 142 -56 C142 -19 160 17 189 66 L303 270 Z " />
<glyph glyph-name="Agrave" unicode="&#xc0;" horiz-adv-x="740" d="M414 775 L391 915 L291 915 L325 775 L414 775 Z M603 0 L730 0 L370 745 L10 0 L127 0 L218 197 L514 197 L603 0 Z M262 291 L368 521 L472 291 L262 291 Z " />
<glyph glyph-name="Aacute" unicode="&#xc1;" horiz-adv-x="740" d="M449 915 L349 915 L326 775 L415 775 L449 915 Z M603 0 L730 0 L370 745 L10 0 L127 0 L218 197 L514 197 L603 0 Z M262 291 L368 521 L472 291 L262 291 Z " />
<glyph glyph-name="Acircumflex" unicode="&#xc2;" horiz-adv-x="740" d="M370 862 L424 775 L502 775 L427 915 L312 915 L237 775 L316 775 L370 862 Z M603 0 L730 0 L370 745 L10 0 L127 0 L218 197 L514 197 L603 0 Z M262 291 L368 521 L472 291 L262 291 Z " />
<glyph glyph-name="Atilde" unicode="&#xc3;" horiz-adv-x="740" d="M446 807 C481 807 502 830 502 830 L502 894 C502 894 481 875 446 875 C384 875 354 904 293 904 C257 904 237 881 237 881 L237 817 C237 817 257 836 293 836 C354 836 384 807 446 807 L446 807 Z M603 0 L730 0 L370 745 L10 0 L127 0 L218 197 L514 197 L603 0 Z M262 291 L368 521 L472 291 L262 291 Z " />
<glyph glyph-name="Adieresis" unicode="&#xc4;" horiz-adv-x="740" d="M287 790 C319 790 342 814 342 845 C342 877 319 900 287 900 C256 900 232 877 232 845 C232 814 256 790 287 790 L287 790 Z M452 790 C484 790 507 814 507 845 C507 877 484 900 452 900 C421 900 397 877 397 845 C397 814 421 790 452 790 L452 790 Z M603 0 L730 0 L370 745 L10 0 L127 0 L218 197 L514 197 L603 0 Z M262 291 L368 521 L472 291 L262 291 Z " />
<glyph glyph-name="Aring" unicode="&#xc5;" horiz-adv-x="740" d="M603 0 L730 0 L386 711 C438 719 476 761 476 815 C476 874 430 920 370 920 C310 920 263 874 263 815 C263 761 302 719 354 711 L10 0 L127 0 L218 197 L514 197 L603 0 Z M321 815 C321 842 343 864 370 864 C397 864 419 842 419 815 C419 788 397 766 370 766 C343 766 321 788 321 815 L321 815 Z M262 291 L368 521 L472 291 L262 291 Z " />
<glyph glyph-name="AE" unicode="&#xc6;" horiz-adv-x="915" d="M681 102 L574 322 L865 322 L865 416 L529 416 L436 609 L840 609 L840 710 L354 710 L10 0 L127 0 L218 197 L514 197 L603 0 L870 0 L870 102 L681 102 Z M262 291 L368 521 L472 291 L262 291 Z " />
<glyph glyph-name="Ccedilla" unicode="&#xc7;" horiz-adv-x="766" d="M726 161 L637 219 C591 141 510 89 413 89 C265 89 150 206 150 355 C150 505 265 621 413 621 C506 621 583 573 630 502 L716 563 C650 662 543 725 413 725 C203 725 40 563 40 355 C40 157 188 1 383 -14 L348 -87 L378 -106 C378 -106 391 -96 409 -96 C431 -96 448 -108 448 -128 C448 -151 429 -165 402 -165 C367 -165 343 -144 343 -144 L318 -189 C318 -189 354 -220 409 -220 C479 -220 518 -177 518 -130 C518 -86 485 -47 426 -46 L440 -14 C564 -6 664 61 726 161 L726 161 Z " />
<glyph glyph-name="Egrave" unicode="&#xc8;" horiz-adv-x="535" d="M314 775 L291 915 L191 915 L225 775 L314 775 Z M190 102 L190 322 L485 322 L485 416 L190 416 L190 609 L460 609 L460 710 L80 710 L80 0 L490 0 L490 102 L190 102 Z " />
<glyph glyph-name="Eacute" unicode="&#xc9;" horiz-adv-x="535" d="M349 915 L249 915 L226 775 L315 775 L349 915 Z M190 102 L190 322 L485 322 L485 416 L190 416 L190 609 L460 609 L460 710 L80 710 L80 0 L490 0 L490 102 L190 102 Z " />
<glyph glyph-name="Ecircumflex" unicode="&#xca;" horiz-adv-x="535" d="M270 862 L324 775 L402 775 L327 915 L212 915 L137 775 L216 775 L270 862 Z M190 102 L190 322 L485 322 L485 416 L190 416 L190 609 L460 609 L460 710 L80 710 L80 0 L490 0 L490 102 L190 102 Z " />
<glyph glyph-name="Edieresis" unicode="&#xcb;" horiz-adv-x="535" d="M187 790 C219 790 242 814 242 845 C242 877 219 900 187 900 C156 900 132 877 132 845 C132 814 156 790 187 790 L187 790 Z M352 790 C384 790 407 814 407 845 C407 877 384 900 352 900 C321 900 297 877 297 845 C297 814 321 790 352 790 L352 790 Z M190 102 L190 322 L485 322 L485 416 L190 416 L190 609 L460 609 L460 710 L80 710 L80 0 L490 0 L490 102 L190 102 Z " />
<glyph glyph-name="Igrave" unicode="&#xcc;" horiz-adv-x="290" d="M189 775 L166 915 L66 915 L100 775 L189 775 Z M90 0 L200 0 L200 710 L90 710 L90 0 Z " />
<glyph glyph-name="Iacute" unicode="&#xcd;" horiz-adv-x="290" d="M101 775 L190 775 L224 915 L124 915 L101 775 Z M90 0 L200 0 L200 710 L90 710 L90 0 Z " />
<glyph glyph-name="Icircumflex" unicode="&#xce;" horiz-adv-x="290" d="M12 775 L91 775 L145 862 L199 775 L277 775 L202 915 L87 915 L12 775 Z M90 0 L200 0 L200 710 L90 710 L90 0 Z " />
<glyph glyph-name="Idieresis" unicode="&#xcf;" horiz-adv-x="290" d="M62 790 C94 790 117 814 117 845 C117 877 94 900 62 900 C31 900 7 877 7 845 C7 814 31 790 62 790 L62 790 Z M227 790 C259 790 282 814 282 845 C282 877 259 900 227 900 C196 900 172 877 172 845 C172 814 196 790 227 790 L227 790 Z M90 0 L200 0 L200 710 L90 710 L90 0 Z " />
<glyph glyph-name="Eth" unicode="&#xd0;" horiz-adv-x="650" d="M260 710 L80 710 L80 382 L0 382 L0 328 L80 328 L80 0 L260 0 C491 0 610 153 610 355 C610 558 491 710 260 710 L260 710 Z M260 102 L190 102 L190 328 L340 328 L340 382 L190 382 L190 609 L260 609 C423 609 500 503 500 355 C500 207 423 102 260 102 L260 102 Z " />
<glyph glyph-name="Ntilde" unicode="&#xd1;" horiz-adv-x="740" d="M227 817 C227 817 247 836 283 836 C344 836 374 807 436 807 C471 807 492 830 492 830 L492 894 C492 894 471 875 436 875 C374 875 344 904 283 904 C247 904 227 881 227 881 L227 817 Z M660 -35 L660 710 L552 710 L552 237 L80 745 L80 0 L189 0 L189 474 L660 -35 Z " />
<glyph glyph-name="Ograve" unicode="&#xd2;" horiz-adv-x="825" d="M457 775 L434 915 L334 915 L368 775 L457 775 Z M413 -15 C622 -15 785 147 785 355 C785 563 622 725 413 725 C203 725 40 563 40 355 C40 147 203 -15 413 -15 L413 -15 Z M413 89 C265 89 150 206 150 355 C150 505 265 621 413 621 C561 621 675 505 675 355 C675 206 561 89 413 89 L413 89 Z " />
<glyph glyph-name="Oacute" unicode="&#xd3;" horiz-adv-x="825" d="M369 775 L458 775 L492 915 L392 915 L369 775 Z M413 -15 C622 -15 785 147 785 355 C785 563 622 725 413 725 C203 725 40 563 40 355 C40 147 203 -15 413 -15 L413 -15 Z M413 89 C265 89 150 206 150 355 C150 505 265 621 413 621 C561 621 675 505 675 355 C675 206 561 89 413 89 L413 89 Z " />
<glyph glyph-name="Ocircumflex" unicode="&#xd4;" horiz-adv-x="825" d="M280 775 L359 775 L413 862 L467 775 L545 775 L470 915 L355 915 L280 775 Z M413 -15 C622 -15 785 147 785 355 C785 563 622 725 413 725 C203 725 40 563 40 355 C40 147 203 -15 413 -15 L413 -15 Z M413 89 C265 89 150 206 150 355 C150 505 265 621 413 621 C561 621 675 505 675 355 C675 206 561 89 413 89 L413 89 Z " />
<glyph glyph-name="Otilde" unicode="&#xd5;" horiz-adv-x="825" d="M280 817 C280 817 300 836 336 836 C397 836 427 807 489 807 C524 807 545 830 545 830 L545 894 C545 894 524 875 489 875 C427 875 397 904 336 904 C300 904 280 881 280 881 L280 817 Z M413 -15 C622 -15 785 147 785 355 C785 563 622 725 413 725 C203 725 40 563 40 355 C40 147 203 -15 413 -15 L413 -15 Z M413 89 C265 89 150 206 150 355 C150 505 265 621 413 621 C561 621 675 505 675 355 C675 206 561 89 413 89 L413 89 Z " />
<glyph glyph-name="Odieresis" unicode="&#xd6;" horiz-adv-x="825" d="M330 790 C362 790 385 814 385 845 C385 877 362 900 330 900 C299 900 275 877 275 845 C275 814 299 790 330 790 L330 790 Z M495 790 C527 790 550 814 550 845 C550 877 527 900 495 900 C464 900 440 877 440 845 C440 814 464 790 495 790 L495 790 Z M413 -15 C622 -15 785 147 785 355 C785 563 622 725 413 725 C203 725 40 563 40 355 C40 147 203 -15 413 -15 L413 -15 Z M413 89 C265 89 150 206 150 355 C150 505 265 621 413 621 C561 621 675 505 675 355 C675 206 561 89 413 89 L413 89 Z " />
<glyph glyph-name="multiply" unicode="&#xd7;" horiz-adv-x="565" d="M467 437 L400 504 L273 377 L146 504 L79 437 L206 310 L79 183 L146 116 L273 243 L400 116 L467 183 L340 310 L467 437 Z " />
<glyph glyph-name="Oslash" unicode="&#xd8;" horiz-adv-x="825" d="M785 710 L717 710 L652 641 C587 694 505 725 413 725 C203 725 40 563 40 355 C40 256 77 168 138 102 L40 0 L109 0 L174 68 C238 16 321 -15 413 -15 C622 -15 785 147 785 355 C785 454 748 542 687 608 L785 710 Z M148 355 C148 506 263 624 413 624 C477 624 534 602 580 566 L211 179 C171 226 148 287 148 355 L148 355 Z M678 355 C678 204 562 87 413 87 C349 87 291 108 246 144 L615 531 C654 484 678 423 678 355 L678 355 Z " />
<glyph glyph-name="Ugrave" unicode="&#xd9;" horiz-adv-x="655" d="M372 775 L349 915 L249 915 L283 775 L372 775 Z M328 -15 C479 -15 583 89 583 253 L583 710 L473 710 L473 255 C473 157 415 94 328 94 C240 94 183 157 183 255 L183 710 L73 710 L73 253 C73 89 176 -15 328 -15 L328 -15 Z " />
<glyph glyph-name="Uacute" unicode="&#xda;" horiz-adv-x="655" d="M284 775 L373 775 L407 915 L307 915 L284 775 Z M328 -15 C479 -15 583 89 583 253 L583 710 L473 710 L473 255 C473 157 415 94 328 94 C240 94 183 157 183 255 L183 710 L73 710 L73 253 C73 89 176 -15 328 -15 L328 -15 Z " />
<glyph glyph-name="Ucircumflex" unicode="&#xdb;" horiz-adv-x="655" d="M195 775 L274 775 L328 862 L382 775 L460 775 L385 915 L270 915 L195 775 Z M328 -15 C479 -15 583 89 583 253 L583 710 L473 710 L473 255 C473 157 415 94 328 94 C240 94 183 157 183 255 L183 710 L73 710 L73 253 C73 89 176 -15 328 -15 L328 -15 Z " />
<glyph glyph-name="Udieresis" unicode="&#xdc;" horiz-adv-x="655" d="M245 790 C277 790 300 814 300 845 C300 877 277 900 245 900 C214 900 190 877 190 845 C190 814 214 790 245 790 L245 790 Z M410 790 C442 790 465 814 465 845 C465 877 442 900 410 900 C379 900 355 877 355 845 C355 814 379 790 410 790 L410 790 Z M328 -15 C479 -15 583 89 583 253 L583 710 L473 710 L473 255 C473 157 415 94 328 94 C240 94 183 157 183 255 L183 710 L73 710 L73 253 C73 89 176 -15 328 -15 L328 -15 Z " />
<glyph glyph-name="Yacute" unicode="&#xdd;" horiz-adv-x="600" d="M261 775 L350 775 L384 915 L284 915 L261 775 Z M245 0 L355 0 L355 343 L600 710 L480 710 L305 451 L130 710 L0 710 L245 343 L245 0 Z " />
<glyph glyph-name="Thorn" unicode="&#xde;" horiz-adv-x="535" d="M273 574 L190 574 L190 710 L80 710 L80 0 L190 0 L190 157 L273 157 C408 157 495 251 495 365 C495 480 408 574 273 574 L273 574 Z M263 251 L190 251 L190 478 L263 478 C339 478 388 429 388 364 C388 300 339 251 263 251 L263 251 Z " />
<glyph glyph-name="germandbls" unicode="&#xdf;" horiz-adv-x="560" d="M467 594 C467 666 403 755 270 755 C137 755 65 673 65 540 L65 0 L165 0 L165 548 C165 622 206 666 270 666 C331 666 367 624 367 578 C367 508 282 473 282 378 C282 273 430 238 430 152 C430 103 397 72 347 72 C300 72 264 97 264 97 L230 21 C230 21 288 -15 356 -15 C455 -15 530 50 530 150 C530 283 379 323 379 395 C379 460 467 499 467 594 L467 594 Z " />
<glyph glyph-name="agrave" unicode="&#xe0;" horiz-adv-x="578" d="M333 555 L310 695 L210 695 L244 555 L333 555 Z M418 445 L415 376 C382 428 330 460 258 460 C131 460 33 356 33 223 C33 90 131 -15 258 -15 C330 -15 382 18 415 70 L418 0 L513 0 L513 445 L418 445 Z M273 82 C194 82 133 144 133 223 C133 301 194 364 273 364 C351 364 413 301 413 223 C413 144 351 82 273 82 L273 82 Z " />
<glyph glyph-name="aacute" unicode="&#xe1;" horiz-adv-x="578" d="M368 695 L268 695 L245 555 L334 555 L368 695 Z M418 445 L415 376 C382 428 330 460 258 460 C131 460 33 356 33 223 C33 90 131 -15 258 -15 C330 -15 382 18 415 70 L418 0 L513 0 L513 445 L418 445 Z M273 82 C194 82 133 144 133 223 C133 301 194 364 273 364 C351 364 413 301 413 223 C413 144 351 82 273 82 L273 82 Z " />
<glyph glyph-name="acircumflex" unicode="&#xe2;" horiz-adv-x="578" d="M289 642 L343 555 L421 555 L346 695 L231 695 L156 555 L235 555 L289 642 Z M418 445 L415 376 C382 428 330 460 258 460 C131 460 33 356 33 223 C33 90 131 -15 258 -15 C330 -15 382 18 415 70 L418 0 L513 0 L513 445 L418 445 Z M273 82 C194 82 133 144 133 223 C133 301 194 364 273 364 C351 364 413 301 413 223 C413 144 351 82 273 82 L273 82 Z " />
<glyph glyph-name="atilde" unicode="&#xe3;" horiz-adv-x="578" d="M365 587 C400 587 421 610 421 610 L421 674 C421 674 400 655 365 655 C303 655 273 684 212 684 C176 684 156 661 156 661 L156 597 C156 597 176 616 212 616 C273 616 303 587 365 587 L365 587 Z M418 445 L415 376 C382 428 330 460 258 460 C131 460 33 356 33 223 C33 90 131 -15 258 -15 C330 -15 382 18 415 70 L418 0 L513 0 L513 445 L418 445 Z M273 82 C194 82 133 144 133 223 C133 301 194 364 273 364 C351 364 413 301 413 223 C413 144 351 82 273 82 L273 82 Z " />
<glyph glyph-name="adieresis" unicode="&#xe4;" horiz-adv-x="578" d="M206 570 C238 570 261 594 261 625 C261 657 238 680 206 680 C175 680 151 657 151 625 C151 594 175 570 206 570 L206 570 Z M371 570 C403 570 426 594 426 625 C426 657 403 680 371 680 C340 680 316 657 316 625 C316 594 340 570 371 570 L371 570 Z M418 445 L415 376 C382 428 330 460 258 460 C131 460 33 356 33 223 C33 90 131 -15 258 -15 C330 -15 382 18 415 70 L418 0 L513 0 L513 445 L418 445 Z M273 82 C194 82 133 144 133 223 C133 301 194 364 273 364 C351 364 413 301 413 223 C413 144 351 82 273 82 L273 82 Z " />
<glyph glyph-name="aring" unicode="&#xe5;" horiz-adv-x="578" d="M289 490 C349 490 395 536 395 595 C395 654 349 700 289 700 C229 700 182 654 182 595 C182 536 229 490 289 490 L289 490 Z M289 644 C316 644 338 622 338 595 C338 568 316 546 289 546 C262 546 240 568 240 595 C240 622 262 644 289 644 L289 644 Z M418 445 L415 376 C382 428 330 460 258 460 C131 460 33 356 33 223 C33 90 131 -15 258 -15 C330 -15 382 18 415 70 L418 0 L513 0 L513 445 L418 445 Z M273 82 C194 82 133 144 133 223 C133 301 194 364 273 364 C351 364 413 301 413 223 C413 144 351 82 273 82 L273 82 Z " />
<glyph glyph-name="ae" unicode="&#xe6;" horiz-adv-x="915" d="M883 233 C883 358 790 460 665 460 C594 460 543 428 511 377 L508 445 L418 445 L415 376 C382 428 330 460 258 460 C131 460 33 356 33 223 C33 90 131 -15 258 -15 C330 -15 382 18 415 70 L418 0 L508 0 L512 70 C543 18 595 -15 668 -15 C753 -15 825 37 864 111 L777 150 C756 111 710 79 653 79 C579 79 522 132 514 206 L881 206 C881 206 883 219 883 233 L883 233 Z M650 374 C714 374 760 340 777 280 L521 280 C540 340 589 374 650 374 L650 374 Z M273 82 C194 82 133 144 133 223 C133 301 194 364 273 364 C351 364 413 301 413 223 C413 144 351 82 273 82 L273 82 Z " />
<glyph glyph-name="ccedilla" unicode="&#xe7;" horiz-adv-x="490" d="M473 97 L390 146 C366 107 324 82 273 82 C194 82 133 144 133 223 C133 301 194 364 273 364 C321 364 360 341 386 306 L466 361 C423 420 355 460 273 460 C138 460 33 356 33 223 C33 100 123 1 244 -13 L208 -87 L238 -106 C238 -106 251 -96 269 -96 C291 -96 308 -108 308 -128 C308 -151 289 -165 262 -165 C227 -165 203 -144 203 -144 L178 -189 C178 -189 214 -220 269 -220 C339 -220 378 -177 378 -130 C378 -86 345 -47 286 -46 L300 -13 C375 -5 435 38 473 97 L473 97 Z " />
<glyph glyph-name="egrave" unicode="&#xe8;" horiz-adv-x="535" d="M312 554 L289 694 L189 694 L223 554 L312 554 Z M503 233 C503 358 405 460 270 460 C136 460 33 356 33 223 C33 90 138 -15 273 -15 C368 -15 445 37 484 111 L397 150 C376 111 330 79 273 79 C199 79 142 132 134 206 L501 206 C501 206 503 218 503 233 L503 233 Z M270 374 C334 374 379 339 397 280 L141 280 C160 339 209 374 270 374 L270 374 Z " />
<glyph glyph-name="eacute" unicode="&#xe9;" horiz-adv-x="535" d="M347 694 L247 694 L224 554 L313 554 L347 694 Z M503 233 C503 358 405 460 270 460 C136 460 33 356 33 223 C33 90 138 -15 273 -15 C368 -15 445 37 484 111 L397 150 C376 111 330 79 273 79 C199 79 142 132 134 206 L501 206 C501 206 503 218 503 233 L503 233 Z M270 374 C334 374 379 339 397 280 L141 280 C160 339 209 374 270 374 L270 374 Z " />
<glyph glyph-name="ecircumflex" unicode="&#xea;" horiz-adv-x="535" d="M268 641 L322 554 L400 554 L325 694 L210 694 L135 554 L214 554 L268 641 Z M503 233 C503 358 405 460 270 460 C136 460 33 356 33 223 C33 90 138 -15 273 -15 C368 -15 445 37 484 111 L397 150 C376 111 330 79 273 79 C199 79 142 132 134 206 L501 206 C501 206 503 218 503 233 L503 233 Z M270 374 C334 374 379 339 397 280 L141 280 C160 339 209 374 270 374 L270 374 Z " />
<glyph glyph-name="edieresis" unicode="&#xeb;" horiz-adv-x="535" d="M185 569 C217 569 240 593 240 624 C240 656 217 679 185 679 C154 679 130 656 130 624 C130 593 154 569 185 569 L185 569 Z M350 569 C382 569 405 593 405 624 C405 656 382 679 350 679 C319 679 295 656 295 624 C295 593 319 569 350 569 L350 569 Z M503 233 C503 358 405 460 270 460 C136 460 33 356 33 223 C33 90 138 -15 273 -15 C368 -15 445 37 484 111 L397 150 C376 111 330 79 273 79 C199 79 142 132 134 206 L501 206 C501 206 503 218 503 233 L503 233 Z M270 374 C334 374 379 339 397 280 L141 280 C160 339 209 374 270 374 L270 374 Z " />
<glyph glyph-name="igrave" unicode="&#xec;" horiz-adv-x="245" d="M167 555 L144 695 L44 695 L78 555 L167 555 Z M73 0 L173 0 L173 445 L73 445 L73 0 Z " />
<glyph glyph-name="iacute" unicode="&#xed;" horiz-adv-x="245" d="M79 555 L168 555 L202 695 L102 695 L79 555 Z M73 0 L173 0 L173 445 L73 445 L73 0 Z " />
<glyph glyph-name="icircumflex" unicode="&#xee;" horiz-adv-x="245" d="M-10 555 L69 555 L123 642 L177 555 L255 555 L180 695 L65 695 L-10 555 Z M73 0 L173 0 L173 445 L73 445 L73 0 Z " />
<glyph glyph-name="idieresis" unicode="&#xef;" horiz-adv-x="245" d="M40 570 C72 570 95 594 95 625 C95 657 72 680 40 680 C9 680 -15 657 -15 625 C-15 594 9 570 40 570 L40 570 Z M205 570 C237 570 260 594 260 625 C260 657 237 680 205 680 C174 680 150 657 150 625 C150 594 174 570 205 570 L205 570 Z M73 0 L173 0 L173 445 L73 445 L73 0 Z " />
<glyph glyph-name="eth" unicode="&#xf0;" horiz-adv-x="545" d="M405 608 L469 636 L451 678 L375 645 C343 682 303 719 255 755 L197 685 C231 659 261 633 286 607 L170 557 L188 515 L319 572 C387 493 422 415 437 343 C406 409 350 455 261 455 C135 455 33 351 33 220 C33 88 138 -15 273 -15 C412 -15 513 87 513 263 C513 379 490 495 405 608 L405 608 Z M273 82 C194 82 133 144 133 223 C133 301 194 364 273 364 C351 364 413 301 413 223 C413 144 351 82 273 82 L273 82 Z " />
<glyph glyph-name="ntilde" unicode="&#xf1;" horiz-adv-x="498" d="M325 587 C360 587 381 610 381 610 L381 674 C381 674 360 655 325 655 C263 655 233 684 172 684 C136 684 116 661 116 661 L116 597 C116 597 136 616 172 616 C233 616 263 587 325 587 L325 587 Z M300 460 C241 460 200 432 163 387 L160 445 L65 445 L65 0 L165 0 L165 291 C193 338 229 363 267 363 C311 363 340 338 340 282 L340 0 L440 0 L440 314 C440 407 384 460 300 460 L300 460 Z " />
<glyph glyph-name="ograve" unicode="&#xf2;" horiz-adv-x="545" d="M317 555 L294 695 L194 695 L228 555 L317 555 Z M273 -15 C407 -15 513 90 513 223 C513 356 407 460 273 460 C138 460 33 356 33 223 C33 90 138 -15 273 -15 L273 -15 Z M273 82 C194 82 133 144 133 223 C133 301 194 364 273 364 C351 364 413 301 413 223 C413 144 351 82 273 82 L273 82 Z " />
<glyph glyph-name="oacute" unicode="&#xf3;" horiz-adv-x="545" d="M229 555 L318 555 L352 695 L252 695 L229 555 Z M273 -15 C407 -15 513 90 513 223 C513 356 407 460 273 460 C138 460 33 356 33 223 C33 90 138 -15 273 -15 L273 -15 Z M273 82 C194 82 133 144 133 223 C133 301 194 364 273 364 C351 364 413 301 413 223 C413 144 351 82 273 82 L273 82 Z " />
<glyph glyph-name="ocircumflex" unicode="&#xf4;" horiz-adv-x="545" d="M140 555 L219 555 L273 642 L327 555 L405 555 L330 695 L215 695 L140 555 Z M273 -15 C407 -15 513 90 513 223 C513 356 407 460 273 460 C138 460 33 356 33 223 C33 90 138 -15 273 -15 L273 -15 Z M273 82 C194 82 133 144 133 223 C133 301 194 364 273 364 C351 364 413 301 413 223 C413 144 351 82 273 82 L273 82 Z " />
<glyph glyph-name="otilde" unicode="&#xf5;" horiz-adv-x="545" d="M140 597 C140 597 160 616 196 616 C257 616 287 587 349 587 C384 587 405 610 405 610 L405 674 C405 674 384 655 349 655 C287 655 257 684 196 684 C160 684 140 661 140 661 L140 597 Z M273 -15 C407 -15 513 90 513 223 C513 356 407 460 273 460 C138 460 33 356 33 223 C33 90 138 -15 273 -15 L273 -15 Z M273 82 C194 82 133 144 133 223 C133 301 194 364 273 364 C351 364 413 301 413 223 C413 144 351 82 273 82 L273 82 Z " />
<glyph glyph-name="odieresis" unicode="&#xf6;" horiz-adv-x="545" d="M190 570 C222 570 245 594 245 625 C245 657 222 680 190 680 C159 680 135 657 135 625 C135 594 159 570 190 570 L190 570 Z M355 570 C387 570 410 594 410 625 C410 657 387 680 355 680 C324 680 300 657 300 625 C300 594 324 570 355 570 L355 570 Z M273 -15 C407 -15 513 90 513 223 C513 356 407 460 273 460 C138 460 33 356 33 223 C33 90 138 -15 273 -15 L273 -15 Z M273 82 C194 82 133 144 133 223 C133 301 194 364 273 364 C351 364 413 301 413 223 C413 144 351 82 273 82 L273 82 Z " />
<glyph glyph-name="divide" unicode="&#xf7;" horiz-adv-x="545" d="M273 426 C312 426 340 456 340 494 C340 532 312 561 273 561 C234 561 205 532 205 494 C205 456 234 426 273 426 L273 426 Z M60 263 L485 263 L485 357 L60 357 L60 263 Z M273 58 C312 58 340 88 340 126 C340 164 312 193 273 193 C234 193 205 164 205 126 C205 88 234 58 273 58 L273 58 Z " />
<glyph glyph-name="oslash" unicode="&#xf8;" horiz-adv-x="545" d="M513 445 L447 445 L418 413 C378 443 328 460 273 460 C138 460 33 356 33 223 C33 162 55 106 93 64 L33 0 L99 0 L129 32 C168 2 218 -15 273 -15 C407 -15 513 90 513 223 C513 284 491 339 453 381 L513 445 Z M128 223 C128 304 191 369 273 369 C303 369 331 360 354 345 L157 134 C139 158 128 189 128 223 L128 223 Z M418 223 C418 141 354 77 273 77 C243 77 215 86 193 101 L389 311 C407 287 418 256 418 223 L418 223 Z " />
<glyph glyph-name="ugrave" unicode="&#xf9;" horiz-adv-x="490" d="M288 555 L265 695 L165 695 L199 555 L288 555 Z M245 -15 C353 -15 433 60 433 173 L433 445 L333 445 L333 171 C333 117 296 83 245 83 C194 83 158 117 158 171 L158 445 L58 445 L58 173 C58 60 138 -15 245 -15 L245 -15 Z " />
<glyph glyph-name="uacute" unicode="&#xfa;" horiz-adv-x="490" d="M200 555 L289 555 L323 695 L223 695 L200 555 Z M245 -15 C353 -15 433 60 433 173 L433 445 L333 445 L333 171 C333 117 296 83 245 83 C194 83 158 117 158 171 L158 445 L58 445 L58 173 C58 60 138 -15 245 -15 L245 -15 Z " />
<glyph glyph-name="ucircumflex" unicode="&#xfb;" horiz-adv-x="490" d="M111 555 L190 555 L244 642 L298 555 L376 555 L301 695 L186 695 L111 555 Z M245 -15 C353 -15 433 60 433 173 L433 445 L333 445 L333 171 C333 117 296 83 245 83 C194 83 158 117 158 171 L158 445 L58 445 L58 173 C58 60 138 -15 245 -15 L245 -15 Z " />
<glyph glyph-name="udieresis" unicode="&#xfc;" horiz-adv-x="490" d="M161 570 C193 570 216 594 216 625 C216 657 193 680 161 680 C130 680 106 657 106 625 C106 594 130 570 161 570 L161 570 Z M326 570 C358 570 381 594 381 625 C381 657 358 680 326 680 C295 680 271 657 271 625 C271 594 295 570 326 570 L326 570 Z M245 -15 C353 -15 433 60 433 173 L433 445 L333 445 L333 171 C333 117 296 83 245 83 C194 83 158 117 158 171 L158 445 L58 445 L58 173 C58 60 138 -15 245 -15 L245 -15 Z " />
<glyph glyph-name="yacute" unicode="&#xfd;" horiz-adv-x="460" d="M314 650 L214 650 L191 510 L280 510 L314 650 Z M354 445 L234 146 L117 445 L5 445 L180 24 L77 -220 L179 -220 L455 445 L354 445 Z " />
<glyph glyph-name="thorn" unicode="&#xfe;" horiz-adv-x="578" d="M320 460 C249 460 197 429 165 378 L165 740 L65 740 L65 -220 L165 -220 L165 67 C197 17 249 -15 320 -15 C447 -15 545 90 545 223 C545 356 447 460 320 460 L320 460 Z M305 82 C227 82 165 144 165 223 C165 301 227 364 305 364 C384 364 445 301 445 223 C445 144 384 82 305 82 L305 82 Z " />
<glyph glyph-name="ydieresis" unicode="&#xff;" horiz-adv-x="460" d="M152 525 C184 525 207 549 207 580 C207 612 184 635 152 635 C121 635 97 612 97 580 C97 549 121 525 152 525 L152 525 Z M317 525 C349 525 372 549 372 580 C372 612 349 635 317 635 C286 635 262 612 262 580 C262 549 286 525 317 525 L317 525 Z M354 445 L234 146 L117 445 L5 445 L180 24 L77 -220 L179 -220 L455 445 L354 445 Z " />
<glyph glyph-name="Amacron" unicode="&#x100;" horiz-adv-x="740" d="M502 890 L237 890 L237 821 L502 821 L502 890 Z M603 0 L730 0 L370 745 L10 0 L127 0 L218 197 L514 197 L603 0 Z M262 291 L368 521 L472 291 L262 291 Z " />
<glyph glyph-name="amacron" unicode="&#x101;" horiz-adv-x="578" d="M421 670 L156 670 L156 601 L421 601 L421 670 Z M418 445 L415 376 C382 428 330 460 258 460 C131 460 33 356 33 223 C33 90 131 -15 258 -15 C330 -15 382 18 415 70 L418 0 L513 0 L513 445 L418 445 Z M273 82 C194 82 133 144 133 223 C133 301 194 364 273 364 C351 364 413 301 413 223 C413 144 351 82 273 82 L273 82 Z " />
<glyph glyph-name="Abreve" unicode="&#x102;" horiz-adv-x="740" d="M370 775 C451 775 502 830 502 915 L428 915 C428 866 406 838 370 838 C334 838 311 866 311 915 L237 915 C237 830 289 775 370 775 L370 775 Z M603 0 L730 0 L370 745 L10 0 L127 0 L218 197 L514 197 L603 0 Z M262 291 L368 521 L472 291 L262 291 Z " />
<glyph glyph-name="abreve" unicode="&#x103;" horiz-adv-x="578" d="M289 555 C370 555 421 610 421 695 L347 695 C347 646 325 618 289 618 C253 618 230 646 230 695 L156 695 C156 610 208 555 289 555 L289 555 Z M418 445 L415 376 C382 428 330 460 258 460 C131 460 33 356 33 223 C33 90 131 -15 258 -15 C330 -15 382 18 415 70 L418 0 L513 0 L513 445 L418 445 Z M273 82 C194 82 133 144 133 223 C133 301 194 364 273 364 C351 364 413 301 413 223 C413 144 351 82 273 82 L273 82 Z " />
<glyph glyph-name="Aogonek" unicode="&#x104;" horiz-adv-x="740" d="M736 -123 C736 -123 712 -152 677 -152 C651 -152 631 -135 631 -106 C631 -69 668 -40 730 0 L370 745 L10 0 L127 0 L218 197 L514 197 L603 0 L644 0 C598 -29 559 -68 559 -123 C559 -183 604 -225 669 -225 C738 -225 776 -172 776 -172 L736 -123 Z M262 291 L368 521 L472 291 L262 291 Z " />
<glyph glyph-name="aogonek" unicode="&#x105;" horiz-adv-x="578" d="M519 -123 C519 -123 495 -152 460 -152 C434 -152 414 -135 414 -106 C414 -69 451 -40 513 0 L513 445 L418 445 L415 376 C382 428 330 460 258 460 C131 460 33 356 33 223 C33 90 131 -15 258 -15 C330 -15 382 18 415 70 L418 0 L427 0 C381 -29 342 -68 342 -123 C342 -183 387 -225 452 -225 C521 -225 559 -172 559 -172 L519 -123 Z M273 82 C194 82 133 144 133 223 C133 301 194 364 273 364 C351 364 413 301 413 223 C413 144 351 82 273 82 L273 82 Z " />
<glyph glyph-name="Cacute" unicode="&#x106;" horiz-adv-x="766" d="M369 775 L458 775 L492 915 L392 915 L369 775 Z M413 -15 C549 -15 660 54 726 161 L637 219 C591 141 510 89 413 89 C265 89 150 206 150 355 C150 505 265 621 413 621 C506 621 583 573 630 502 L716 563 C650 662 543 725 413 725 C203 725 40 563 40 355 C40 147 203 -15 413 -15 L413 -15 Z " />
<glyph glyph-name="cacute" unicode="&#x107;" horiz-adv-x="490" d="M229 555 L318 555 L352 695 L252 695 L229 555 Z M273 -15 C360 -15 431 31 473 97 L390 146 C366 107 324 82 273 82 C194 82 133 144 133 223 C133 301 194 364 273 364 C321 364 360 341 386 306 L466 361 C423 420 355 460 273 460 C138 460 33 356 33 223 C33 90 138 -15 273 -15 L273 -15 Z " />
<glyph glyph-name="Ccircumflex" unicode="&#x108;" horiz-adv-x="766" d="M280 775 L359 775 L413 862 L467 775 L545 775 L470 915 L355 915 L280 775 Z M413 -15 C549 -15 660 54 726 161 L637 219 C591 141 510 89 413 89 C265 89 150 206 150 355 C150 505 265 621 413 621 C506 621 583 573 630 502 L716 563 C650 662 543 725 413 725 C203 725 40 563 40 355 C40 147 203 -15 413 -15 L413 -15 Z " />
<glyph glyph-name="ccircumflex" unicode="&#x109;" horiz-adv-x="490" d="M140 555 L219 555 L273 642 L327 555 L405 555 L330 695 L215 695 L140 555 Z M273 -15 C360 -15 431 31 473 97 L390 146 C366 107 324 82 273 82 C194 82 133 144 133 223 C133 301 194 364 273 364 C321 364 360 341 386 306 L466 361 C423 420 355 460 273 460 C138 460 33 356 33 223 C33 90 138 -15 273 -15 L273 -15 Z " />
<glyph glyph-name="Cdotaccent" unicode="&#x10a;" horiz-adv-x="766" d="M413 790 C445 790 468 814 468 845 C468 877 445 900 413 900 C382 900 358 877 358 845 C358 814 382 790 413 790 L413 790 Z M413 -15 C549 -15 660 54 726 161 L637 219 C591 141 510 89 413 89 C265 89 150 206 150 355 C150 505 265 621 413 621 C506 621 583 573 630 502 L716 563 C650 662 543 725 413 725 C203 725 40 563 40 355 C40 147 203 -15 413 -15 L413 -15 Z " />
<glyph glyph-name="cdotaccent" unicode="&#x10b;" horiz-adv-x="490" d="M273 570 C305 570 328 594 328 625 C328 657 305 680 273 680 C242 680 218 657 218 625 C218 594 242 570 273 570 L273 570 Z M273 -15 C360 -15 431 31 473 97 L390 146 C366 107 324 82 273 82 C194 82 133 144 133 223 C133 301 194 364 273 364 C321 364 360 341 386 306 L466 361 C423 420 355 460 273 460 C138 460 33 356 33 223 C33 90 138 -15 273 -15 L273 -15 Z " />
<glyph glyph-name="Ccaron" unicode="&#x10c;" horiz-adv-x="766" d="M280 915 L355 775 L470 775 L545 915 L467 915 L413 828 L359 915 L280 915 Z M413 -15 C549 -15 660 54 726 161 L637 219 C591 141 510 89 413 89 C265 89 150 206 150 355 C150 505 265 621 413 621 C506 621 583 573 630 502 L716 563 C650 662 543 725 413 725 C203 725 40 563 40 355 C40 147 203 -15 413 -15 L413 -15 Z " />
<glyph glyph-name="ccaron" unicode="&#x10d;" horiz-adv-x="490" d="M140 695 L215 555 L330 555 L405 695 L327 695 L273 608 L219 695 L140 695 Z M273 -15 C360 -15 431 31 473 97 L390 146 C366 107 324 82 273 82 C194 82 133 144 133 223 C133 301 194 364 273 364 C321 364 360 341 386 306 L466 361 C423 420 355 460 273 460 C138 460 33 356 33 223 C33 90 138 -15 273 -15 L273 -15 Z " />
<glyph glyph-name="Dcaron" unicode="&#x10e;" horiz-adv-x="650" d="M192 915 L267 775 L382 775 L457 915 L379 915 L325 828 L271 915 L192 915 Z M80 0 L260 0 C491 0 610 153 610 355 C610 558 491 710 260 710 L80 710 L80 0 Z M190 102 L190 609 L260 609 C423 609 500 503 500 355 C500 207 423 102 260 102 L190 102 Z " />
<glyph glyph-name="dcaron" unicode="&#x10f;" horiz-adv-x="705" d="M413 378 C381 429 329 460 258 460 C131 460 33 356 33 223 C33 90 131 -15 258 -15 C330 -15 382 18 415 70 L418 0 L513 0 L513 740 L413 740 L413 378 Z M604 710 L581 440 L671 440 L705 710 L604 710 Z M273 82 C194 82 133 144 133 223 C133 301 194 364 273 364 C351 364 413 301 413 223 C413 144 351 82 273 82 L273 82 Z " />
<glyph glyph-name="Dcroat" unicode="&#x110;" horiz-adv-x="650" d="M260 710 L80 710 L80 382 L0 382 L0 328 L80 328 L80 0 L260 0 C491 0 610 153 610 355 C610 558 491 710 260 710 L260 710 Z M260 102 L190 102 L190 328 L340 328 L340 382 L190 382 L190 609 L260 609 C423 609 500 503 500 355 C500 207 423 102 260 102 L260 102 Z " />
<glyph glyph-name="dcroat" unicode="&#x111;" horiz-adv-x="578" d="M578 640 L513 640 L513 740 L413 740 L413 640 L323 640 L323 586 L413 586 L413 378 C381 429 329 460 258 460 C131 460 33 356 33 223 C33 90 131 -15 258 -15 C330 -15 382 18 415 70 L418 0 L513 0 L513 586 L578 586 L578 640 Z M273 82 C194 82 133 144 133 223 C133 301 194 364 273 364 C351 364 413 301 413 223 C413 144 351 82 273 82 L273 82 Z " />
<glyph glyph-name="Emacron" unicode="&#x112;" horiz-adv-x="535" d="M402 890 L137 890 L137 821 L402 821 L402 890 Z M190 102 L190 322 L485 322 L485 416 L190 416 L190 609 L460 609 L460 710 L80 710 L80 0 L490 0 L490 102 L190 102 Z " />
<glyph glyph-name="emacron" unicode="&#x113;" horiz-adv-x="535" d="M400 669 L135 669 L135 600 L400 600 L400 669 Z M503 233 C503 358 405 460 270 460 C136 460 33 356 33 223 C33 90 138 -15 273 -15 C368 -15 445 37 484 111 L397 150 C376 111 330 79 273 79 C199 79 142 132 134 206 L501 206 C501 206 503 218 503 233 L503 233 Z M270 374 C334 374 379 339 397 280 L141 280 C160 339 209 374 270 374 L270 374 Z " />
<glyph glyph-name="Ebreve" unicode="&#x114;" horiz-adv-x="535" d="M270 775 C351 775 402 830 402 915 L328 915 C328 866 306 838 270 838 C234 838 211 866 211 915 L137 915 C137 830 189 775 270 775 L270 775 Z M190 102 L190 322 L485 322 L485 416 L190 416 L190 609 L460 609 L460 710 L80 710 L80 0 L490 0 L490 102 L190 102 Z " />
<glyph glyph-name="ebreve" unicode="&#x115;" horiz-adv-x="535" d="M268 554 C349 554 400 609 400 694 L326 694 C326 645 304 617 268 617 C232 617 209 645 209 694 L135 694 C135 609 187 554 268 554 L268 554 Z M503 233 C503 358 405 460 270 460 C136 460 33 356 33 223 C33 90 138 -15 273 -15 C368 -15 445 37 484 111 L397 150 C376 111 330 79 273 79 C199 79 142 132 134 206 L501 206 C501 206 503 218 503 233 L503 233 Z M270 374 C334 374 379 339 397 280 L141 280 C160 339 209 374 270 374 L270 374 Z " />
<glyph glyph-name="Edotaccent" unicode="&#x116;" horiz-adv-x="535" d="M270 790 C302 790 325 814 325 845 C325 877 302 900 270 900 C239 900 215 877 215 845 C215 814 239 790 270 790 L270 790 Z M190 102 L190 322 L485 322 L485 416 L190 416 L190 609 L460 609 L460 710 L80 710 L80 0 L490 0 L490 102 L190 102 Z " />
<glyph glyph-name="edotaccent" unicode="&#x117;" horiz-adv-x="535" d="M268 569 C300 569 323 593 323 624 C323 656 300 679 268 679 C237 679 213 656 213 624 C213 593 237 569 268 569 L268 569 Z M503 233 C503 358 405 460 270 460 C136 460 33 356 33 223 C33 90 138 -15 273 -15 C368 -15 445 37 484 111 L397 150 C376 111 330 79 273 79 C199 79 142 132 134 206 L501 206 C501 206 503 218 503 233 L503 233 Z M270 374 C334 374 379 339 397 280 L141 280 C160 339 209 374 270 374 L270 374 Z " />
<glyph glyph-name="Eogonek" unicode="&#x118;" horiz-adv-x="535" d="M496 -123 C496 -123 472 -152 437 -152 C411 -152 391 -135 391 -106 C391 -69 428 -40 490 0 L490 102 L190 102 L190 322 L485 322 L485 416 L190 416 L190 609 L460 609 L460 710 L80 710 L80 0 L404 0 C358 -29 319 -68 319 -123 C319 -183 364 -225 429 -225 C498 -225 536 -172 536 -172 L496 -123 Z " />
<glyph glyph-name="eogonek" unicode="&#x119;" horiz-adv-x="535" d="M503 233 C503 358 405 460 270 460 C136 460 33 356 33 223 C33 99 124 0 245 -13 C208 -41 179 -76 179 -123 C179 -183 224 -225 289 -225 C358 -225 396 -172 396 -172 L356 -123 C356 -123 332 -152 297 -152 C271 -152 251 -135 251 -106 C251 -71 285 -43 342 -5 C405 13 455 56 484 111 L397 150 C376 111 330 79 273 79 C199 79 142 132 134 206 L501 206 C501 206 503 218 503 233 L503 233 Z M270 374 C334 374 379 339 397 280 L141 280 C160 339 209 374 270 374 L270 374 Z " />
<glyph glyph-name="Ecaron" unicode="&#x11a;" horiz-adv-x="535" d="M327 775 L402 915 L324 915 L270 828 L216 915 L137 915 L212 775 L327 775 Z M190 102 L190 322 L485 322 L485 416 L190 416 L190 609 L460 609 L460 710 L80 710 L80 0 L490 0 L490 102 L190 102 Z " />
<glyph glyph-name="ecaron" unicode="&#x11b;" horiz-adv-x="535" d="M325 554 L400 694 L322 694 L268 607 L214 694 L135 694 L210 554 L325 554 Z M503 233 C503 358 405 460 270 460 C136 460 33 356 33 223 C33 90 138 -15 273 -15 C368 -15 445 37 484 111 L397 150 C376 111 330 79 273 79 C199 79 142 132 134 206 L501 206 C501 206 503 218 503 233 L503 233 Z M270 374 C334 374 379 339 397 280 L141 280 C160 339 209 374 270 374 L270 374 Z " />
<glyph glyph-name="Gcircumflex" unicode="&#x11c;" horiz-adv-x="808" d="M418 862 L472 775 L550 775 L475 915 L360 915 L285 775 L364 775 L418 862 Z M766 375 L284 375 L284 276 L655 276 C628 167 538 89 413 89 C265 89 150 206 150 355 C150 505 265 621 418 621 C498 621 567 590 615 542 L687 619 C621 684 527 725 418 725 C204 725 40 563 40 355 C40 147 203 -15 413 -15 C619 -15 768 142 768 345 C768 360 766 375 766 375 L766 375 Z " />
<glyph glyph-name="gcircumflex" unicode="&#x11d;" horiz-adv-x="578" d="M289 642 L343 555 L421 555 L346 695 L231 695 L156 555 L235 555 L289 642 Z M418 445 L415 377 C382 428 330 460 258 460 C131 460 33 356 33 228 C33 99 131 -5 258 -5 C329 -5 381 26 413 76 L413 -8 C413 -95 353 -146 276 -146 C203 -146 150 -104 150 -48 L50 -48 C50 -158 148 -235 275 -235 C409 -235 513 -147 513 -8 L513 445 L418 445 Z M273 84 C194 84 133 147 133 225 C133 304 194 366 273 366 C351 366 413 304 413 225 C413 147 351 84 273 84 L273 84 Z " />
<glyph glyph-name="Gbreve" unicode="&#x11e;" horiz-adv-x="808" d="M418 775 C499 775 550 830 550 915 L476 915 C476 866 454 838 418 838 C382 838 359 866 359 915 L285 915 C285 830 337 775 418 775 L418 775 Z M766 375 L284 375 L284 276 L655 276 C628 167 538 89 413 89 C265 89 150 206 150 355 C150 505 265 621 418 621 C498 621 567 590 615 542 L687 619 C621 684 527 725 418 725 C204 725 40 563 40 355 C40 147 203 -15 413 -15 C619 -15 768 142 768 345 C768 360 766 375 766 375 L766 375 Z " />
<glyph glyph-name="gbreve" unicode="&#x11f;" horiz-adv-x="578" d="M289 555 C370 555 421 610 421 695 L347 695 C347 646 325 618 289 618 C253 618 230 646 230 695 L156 695 C156 610 208 555 289 555 L289 555 Z M418 445 L415 377 C382 428 330 460 258 460 C131 460 33 356 33 228 C33 99 131 -5 258 -5 C329 -5 381 26 413 76 L413 -8 C413 -95 353 -146 276 -146 C203 -146 150 -104 150 -48 L50 -48 C50 -158 148 -235 275 -235 C409 -235 513 -147 513 -8 L513 445 L418 445 Z M273 84 C194 84 133 147 133 225 C133 304 194 366 273 366 C351 366 413 304 413 225 C413 147 351 84 273 84 L273 84 Z " />
<glyph glyph-name="Gdotaccent" unicode="&#x120;" horiz-adv-x="808" d="M418 790 C450 790 473 814 473 845 C473 877 450 900 418 900 C387 900 363 877 363 845 C363 814 387 790 418 790 L418 790 Z M766 375 L284 375 L284 276 L655 276 C628 167 538 89 413 89 C265 89 150 206 150 355 C150 505 265 621 418 621 C498 621 567 590 615 542 L687 619 C621 684 527 725 418 725 C204 725 40 563 40 355 C40 147 203 -15 413 -15 C619 -15 768 142 768 345 C768 360 766 375 766 375 L766 375 Z " />
<glyph glyph-name="gdotaccent" unicode="&#x121;" horiz-adv-x="578" d="M289 570 C321 570 344 594 344 625 C344 657 321 680 289 680 C258 680 234 657 234 625 C234 594 258 570 289 570 L289 570 Z M418 445 L415 377 C382 428 330 460 258 460 C131 460 33 356 33 228 C33 99 131 -5 258 -5 C329 -5 381 26 413 76 L413 -8 C413 -95 353 -146 276 -146 C203 -146 150 -104 150 -48 L50 -48 C50 -158 148 -235 275 -235 C409 -235 513 -147 513 -8 L513 445 L418 445 Z M273 84 C194 84 133 147 133 225 C133 304 194 366 273 366 C351 366 413 304 413 225 C413 147 351 84 273 84 L273 84 Z " />
<glyph glyph-name="Gcommaaccent" unicode="&#x122;" horiz-adv-x="808" d="M766 375 L284 375 L284 276 L655 276 C628 167 538 89 413 89 C265 89 150 206 150 355 C150 505 265 621 418 621 C498 621 567 590 615 542 L687 619 C621 684 527 725 418 725 C204 725 40 563 40 355 C40 147 203 -15 413 -15 C619 -15 768 142 768 345 C768 360 766 375 766 375 L766 375 Z M340 -205 L429 -205 L463 -65 L363 -65 L340 -205 Z " />
<glyph glyph-name="gcommaaccent" unicode="&#x123;" horiz-adv-x="578" d="M360 695 L271 695 L237 555 L337 555 L360 695 Z M418 445 L415 377 C382 428 330 460 258 460 C131 460 33 356 33 228 C33 99 131 -5 258 -5 C329 -5 381 26 413 76 L413 -8 C413 -95 353 -146 276 -146 C203 -146 150 -104 150 -48 L50 -48 C50 -158 148 -235 275 -235 C409 -235 513 -147 513 -8 L513 445 L418 445 Z M273 84 C194 84 133 147 133 225 C133 304 194 366 273 366 C351 366 413 304 413 225 C413 147 351 84 273 84 L273 84 Z " />
<glyph glyph-name="Hcircumflex" unicode="&#x124;" horiz-adv-x="760" d="M380 862 L434 775 L512 775 L437 915 L322 915 L247 775 L326 775 L380 862 Z M570 710 L570 423 L190 423 L190 710 L80 710 L80 0 L190 0 L190 319 L570 319 L570 0 L680 0 L680 710 L570 710 Z " />
<glyph glyph-name="hcircumflex" unicode="&#x125;" horiz-adv-x="498" d="M169 805 L247 805 L172 945 L57 945 L-18 805 L61 805 L115 892 L169 805 Z M300 460 C242 460 202 433 165 389 L165 740 L65 740 L65 0 L165 0 L165 291 C193 338 229 363 267 363 C311 363 340 338 340 282 L340 0 L440 0 L440 314 C440 407 384 460 300 460 L300 460 Z " />
<glyph glyph-name="Hbar" unicode="&#x126;" horiz-adv-x="760" d="M760 587 L680 587 L680 710 L570 710 L570 587 L190 587 L190 710 L80 710 L80 587 L0 587 L0 533 L80 533 L80 0 L190 0 L190 319 L570 319 L570 0 L680 0 L680 533 L760 533 L760 587 Z M570 423 L190 423 L190 533 L570 533 L570 423 Z " />
<glyph glyph-name="hbar" unicode="&#x127;" horiz-adv-x="498" d="M300 460 C242 460 202 433 165 389 L165 586 L255 586 L255 640 L165 640 L165 740 L65 740 L65 640 L0 640 L0 586 L65 586 L65 0 L165 0 L165 291 C193 338 229 363 267 363 C311 363 340 338 340 282 L340 0 L440 0 L440 314 C440 407 384 460 300 460 L300 460 Z " />
<glyph glyph-name="Itilde" unicode="&#x128;" horiz-adv-x="290" d="M12 817 C12 817 32 836 68 836 C129 836 159 807 221 807 C256 807 277 830 277 830 L277 894 C277 894 256 875 221 875 C159 875 129 904 68 904 C32 904 12 881 12 881 L12 817 Z M90 0 L200 0 L200 710 L90 710 L90 0 Z " />
<glyph glyph-name="itilde" unicode="&#x129;" horiz-adv-x="245" d="M-10 597 C-10 597 10 616 46 616 C107 616 137 587 199 587 C234 587 255 610 255 610 L255 674 C255 674 234 655 199 655 C137 655 107 684 46 684 C10 684 -10 661 -10 661 L-10 597 Z M73 0 L173 0 L173 445 L73 445 L73 0 Z " />
<glyph glyph-name="Imacron" unicode="&#x12a;" horiz-adv-x="290" d="M12 821 L277 821 L277 890 L12 890 L12 821 Z M90 0 L200 0 L200 710 L90 710 L90 0 Z " />
<glyph glyph-name="imacron" unicode="&#x12b;" horiz-adv-x="245" d="M-10 601 L255 601 L255 670 L-10 670 L-10 601 Z M73 0 L173 0 L173 445 L73 445 L73 0 Z " />
<glyph glyph-name="Ibreve" unicode="&#x12c;" horiz-adv-x="290" d="M12 915 C12 830 64 775 145 775 C226 775 277 830 277 915 L203 915 C203 866 181 838 145 838 C109 838 86 866 86 915 L12 915 Z M90 0 L200 0 L200 710 L90 710 L90 0 Z " />
<glyph glyph-name="ibreve" unicode="&#x12d;" horiz-adv-x="245" d="M-10 695 C-10 610 42 555 123 555 C204 555 255 610 255 695 L181 695 C181 646 159 618 123 618 C87 618 64 646 64 695 L-10 695 Z M73 0 L173 0 L173 445 L73 445 L73 0 Z " />
<glyph glyph-name="Iogonek" unicode="&#x12e;" horiz-adv-x="290" d="M206 -123 C206 -123 182 -152 147 -152 C121 -152 101 -135 101 -106 C101 -69 138 -40 200 0 L200 710 L90 710 L90 0 L114 0 C68 -29 29 -68 29 -123 C29 -183 74 -225 139 -225 C208 -225 246 -172 246 -172 L206 -123 Z " />
<glyph glyph-name="iogonek" unicode="&#x12f;" horiz-adv-x="245" d="M123 555 C162 555 190 584 190 620 C190 656 162 685 123 685 C84 685 55 656 55 620 C55 584 84 555 123 555 L123 555 Z M178 -123 C178 -123 154 -152 119 -152 C93 -152 73 -135 73 -106 C73 -69 110 -40 172 0 L173 0 L173 445 L73 445 L73 0 L86 0 C40 -29 1 -68 1 -123 C1 -183 46 -225 111 -225 C180 -225 218 -172 218 -172 L178 -123 Z " />
<glyph glyph-name="Idotaccent" unicode="&#x130;" horiz-adv-x="290" d="M145 790 C177 790 200 814 200 845 C200 877 177 900 145 900 C114 900 90 877 90 845 C90 814 114 790 145 790 L145 790 Z M90 0 L200 0 L200 710 L90 710 L90 0 Z " />
<glyph glyph-name="dotlessi" unicode="&#x131;" horiz-adv-x="245" d="M73 0 L173 0 L173 445 L73 445 L73 0 Z " />
<glyph glyph-name="IJ" unicode="&#x132;" horiz-adv-x="784" d="M90 0 L200 0 L200 710 L90 710 L90 0 Z M489 -15 C622 -15 712 76 712 223 L712 710 L602 710 L602 225 C602 146 557 94 489 94 C446 94 413 117 392 150 L300 94 C340 28 403 -15 489 -15 L489 -15 Z " />
<glyph glyph-name="ij" unicode="&#x133;" horiz-adv-x="490" d="M123 555 C162 555 190 584 190 620 C190 656 162 685 123 685 C84 685 55 656 55 620 C55 584 84 555 123 555 L123 555 Z M368 555 C407 555 435 584 435 620 C435 656 407 685 368 685 C329 685 300 656 300 620 C300 584 329 555 368 555 L368 555 Z M73 0 L173 0 L173 445 L73 445 L73 0 Z M318 -220 L418 -220 L418 445 L318 445 L318 -220 Z " />
<glyph glyph-name="Jcircumflex" unicode="&#x134;" horiz-adv-x="494" d="M234 775 L313 775 L367 862 L421 775 L499 775 L424 915 L309 915 L234 775 Z M199 -15 C332 -15 422 76 422 223 L422 710 L312 710 L312 225 C312 146 267 94 199 94 C156 94 123 117 102 150 L10 94 C50 28 113 -15 199 -15 L199 -15 Z " />
<glyph glyph-name="jcircumflex" unicode="&#x135;" horiz-adv-x="245" d="M-10 570 L69 570 L123 657 L177 570 L255 570 L180 710 L65 710 L-10 570 Z M73 -220 L173 -220 L173 445 L73 445 L73 -220 Z " />
<glyph glyph-name="Kcommaaccent" unicode="&#x136;" horiz-adv-x="620" d="M297 368 L590 710 L452 710 L190 395 L190 710 L80 710 L80 0 L190 0 L190 335 L471 0 L610 0 L297 368 Z M252 -205 L341 -205 L375 -65 L275 -65 L252 -205 Z " />
<glyph glyph-name="kcommaaccent" unicode="&#x137;" horiz-adv-x="443" d="M251 237 L428 445 L309 445 L165 264 L165 740 L65 740 L65 0 L165 0 L165 200 L318 0 L438 0 L251 237 Z M169 -205 L258 -205 L292 -65 L192 -65 L169 -205 Z " />
<glyph glyph-name="Lacute" unicode="&#x139;" horiz-adv-x="505" d="M214 915 L114 915 L91 775 L180 775 L214 915 Z M190 104 L190 710 L80 710 L80 0 L490 0 L490 104 L190 104 Z " />
<glyph glyph-name="lacute" unicode="&#x13a;" horiz-adv-x="245" d="M79 805 L168 805 L202 945 L102 945 L79 805 Z M73 0 L173 0 L173 740 L73 740 L73 0 Z " />
<glyph glyph-name="Lcommaaccent" unicode="&#x13b;" horiz-adv-x="505" d="M190 104 L190 710 L80 710 L80 0 L490 0 L490 104 L190 104 Z M212 -205 L301 -205 L335 -65 L235 -65 L212 -205 Z " />
<glyph glyph-name="lcommaaccent" unicode="&#x13c;" horiz-adv-x="245" d="M73 0 L173 0 L173 740 L73 740 L73 0 Z M50 -205 L139 -205 L173 -65 L73 -65 L50 -205 Z " />
<glyph glyph-name="Lcaron" unicode="&#x13d;" horiz-adv-x="505" d="M190 104 L190 710 L80 710 L80 0 L490 0 L490 104 L190 104 Z M459 710 L358 710 L335 440 L425 440 L459 710 Z " />
<glyph glyph-name="lcaron" unicode="&#x13e;" horiz-adv-x="367" d="M73 0 L173 0 L173 740 L73 740 L73 0 Z M243 440 L333 440 L367 710 L266 710 L243 440 Z " />
<glyph glyph-name="Ldot" unicode="&#x13f;" horiz-adv-x="505" d="M190 104 L190 710 L80 710 L80 0 L490 0 L490 104 L190 104 Z M383 288 C422 288 450 318 450 356 C450 394 422 423 383 423 C344 423 315 394 315 356 C315 318 344 288 383 288 L383 288 Z " />
<glyph glyph-name="ldot" unicode="&#x140;" horiz-adv-x="353" d="M73 0 L173 0 L173 740 L73 740 L73 0 Z M286 288 C325 288 353 318 353 356 C353 394 325 423 286 423 C247 423 218 394 218 356 C218 318 247 288 286 288 L286 288 Z " />
<glyph glyph-name="Lslash" unicode="&#x141;" horiz-adv-x="505" d="M190 104 L190 359 L340 403 L340 457 L190 413 L190 710 L80 710 L80 381 L0 357 L0 303 L80 327 L80 0 L490 0 L490 104 L190 104 Z " />
<glyph glyph-name="lslash" unicode="&#x142;" horiz-adv-x="245" d="M245 437 L173 413 L173 740 L73 740 L73 381 L0 357 L0 303 L73 327 L73 0 L173 0 L173 359 L245 383 L245 437 Z " />
<glyph glyph-name="Nacute" unicode="&#x143;" horiz-adv-x="740" d="M316 775 L405 775 L439 915 L339 915 L316 775 Z M660 -35 L660 710 L552 710 L552 237 L80 745 L80 0 L189 0 L189 474 L660 -35 Z " />
<glyph glyph-name="nacute" unicode="&#x144;" horiz-adv-x="498" d="M328 695 L228 695 L205 555 L294 555 L328 695 Z M300 460 C241 460 200 432 163 387 L160 445 L65 445 L65 0 L165 0 L165 291 C193 338 229 363 267 363 C311 363 340 338 340 282 L340 0 L440 0 L440 314 C440 407 384 460 300 460 L300 460 Z " />
<glyph glyph-name="Ncommaaccent" unicode="&#x145;" horiz-adv-x="740" d="M660 -35 L660 710 L552 710 L552 237 L80 745 L80 0 L189 0 L189 474 L660 -35 Z M297 -205 L386 -205 L420 -65 L320 -65 L297 -205 Z " />
<glyph glyph-name="ncommaaccent" unicode="&#x146;" horiz-adv-x="498" d="M300 460 C241 460 200 432 163 387 L160 445 L65 445 L65 0 L165 0 L165 291 C193 338 229 363 267 363 C311 363 340 338 340 282 L340 0 L440 0 L440 314 C440 407 384 460 300 460 L300 460 Z M176 -205 L265 -205 L299 -65 L199 -65 L176 -205 Z " />
<glyph glyph-name="Ncaron" unicode="&#x147;" horiz-adv-x="740" d="M227 915 L302 775 L417 775 L492 915 L414 915 L360 828 L306 915 L227 915 Z M660 -35 L660 710 L552 710 L552 237 L80 745 L80 0 L189 0 L189 474 L660 -35 Z " />
<glyph glyph-name="ncaron" unicode="&#x148;" horiz-adv-x="498" d="M306 555 L381 695 L303 695 L249 608 L195 695 L116 695 L191 555 L306 555 Z M300 460 C241 460 200 432 163 387 L160 445 L65 445 L65 0 L165 0 L165 291 C193 338 229 363 267 363 C311 363 340 338 340 282 L340 0 L440 0 L440 314 C440 407 384 460 300 460 L300 460 Z " />
<glyph glyph-name="Eng" unicode="&#x14a;" horiz-adv-x="740" d="M80 0 L189 0 L189 474 L552 81 L552 -20 C552 -89 516 -127 460 -127 C428 -127 406 -115 387 -97 L328 -178 C363 -212 409 -235 468 -235 C581 -235 660 -159 660 -23 L660 710 L552 710 L552 237 L80 745 L80 0 Z " />
<glyph glyph-name="eng" unicode="&#x14b;" horiz-adv-x="498" d="M300 460 C241 460 200 432 163 387 L160 445 L65 445 L65 0 L165 0 L165 291 C193 338 229 363 267 363 C311 363 340 338 340 282 L340 -220 L440 -220 L440 314 C440 407 384 460 300 460 L300 460 Z " />
<glyph glyph-name="Omacron" unicode="&#x14c;" horiz-adv-x="825" d="M280 821 L545 821 L545 890 L280 890 L280 821 Z M413 -15 C622 -15 785 147 785 355 C785 563 622 725 413 725 C203 725 40 563 40 355 C40 147 203 -15 413 -15 L413 -15 Z M413 89 C265 89 150 206 150 355 C150 505 265 621 413 621 C561 621 675 505 675 355 C675 206 561 89 413 89 L413 89 Z " />
<glyph glyph-name="omacron" unicode="&#x14d;" horiz-adv-x="545" d="M140 601 L405 601 L405 670 L140 670 L140 601 Z M273 -15 C407 -15 513 90 513 223 C513 356 407 460 273 460 C138 460 33 356 33 223 C33 90 138 -15 273 -15 L273 -15 Z M273 82 C194 82 133 144 133 223 C133 301 194 364 273 364 C351 364 413 301 413 223 C413 144 351 82 273 82 L273 82 Z " />
<glyph glyph-name="Obreve" unicode="&#x14e;" horiz-adv-x="825" d="M280 915 C280 830 332 775 413 775 C494 775 545 830 545 915 L471 915 C471 866 449 838 413 838 C377 838 354 866 354 915 L280 915 Z M413 -15 C622 -15 785 147 785 355 C785 563 622 725 413 725 C203 725 40 563 40 355 C40 147 203 -15 413 -15 L413 -15 Z M413 89 C265 89 150 206 150 355 C150 505 265 621 413 621 C561 621 675 505 675 355 C675 206 561 89 413 89 L413 89 Z " />
<glyph glyph-name="obreve" unicode="&#x14f;" horiz-adv-x="545" d="M140 695 C140 610 192 555 273 555 C354 555 405 610 405 695 L331 695 C331 646 309 618 273 618 C237 618 214 646 214 695 L140 695 Z M273 -15 C407 -15 513 90 513 223 C513 356 407 460 273 460 C138 460 33 356 33 223 C33 90 138 -15 273 -15 L273 -15 Z M273 82 C194 82 133 144 133 223 C133 301 194 364 273 364 C351 364 413 301 413 223 C413 144 351 82 273 82 L273 82 Z " />
<glyph glyph-name="Ohungarumlaut" unicode="&#x150;" horiz-adv-x="825" d="M301 775 L380 775 L414 915 L324 915 L301 775 Z M446 775 L525 775 L559 915 L469 915 L446 775 Z M413 -15 C622 -15 785 147 785 355 C785 563 622 725 413 725 C203 725 40 563 40 355 C40 147 203 -15 413 -15 L413 -15 Z M413 89 C265 89 150 206 150 355 C150 505 265 621 413 621 C561 621 675 505 675 355 C675 206 561 89 413 89 L413 89 Z " />
<glyph glyph-name="ohungarumlaut" unicode="&#x151;" horiz-adv-x="545" d="M161 555 L240 555 L274 695 L184 695 L161 555 Z M306 555 L385 555 L419 695 L329 695 L306 555 Z M273 -15 C407 -15 513 90 513 223 C513 356 407 460 273 460 C138 460 33 356 33 223 C33 90 138 -15 273 -15 L273 -15 Z M273 82 C194 82 133 144 133 223 C133 301 194 364 273 364 C351 364 413 301 413 223 C413 144 351 82 273 82 L273 82 Z " />
<glyph glyph-name="OE" unicode="&#x152;" horiz-adv-x="1100" d="M1055 102 L687 102 C741 160 776 236 784 322 L1050 322 L1050 416 L780 416 C768 491 735 557 686 609 L1025 609 L1025 710 L520 710 C487 720 451 725 413 725 C203 725 40 563 40 355 C40 147 203 -15 413 -15 C451 -15 487 -10 520 0 L1055 0 L1055 102 Z M150 355 C150 505 265 621 413 621 C561 621 675 505 675 355 C675 206 561 89 413 89 C265 89 150 206 150 355 L150 355 Z " />
<glyph glyph-name="oe" unicode="&#x153;" horiz-adv-x="915" d="M883 233 C883 358 785 460 650 460 C565 460 499 418 462 353 C425 418 358 460 273 460 C138 460 33 356 33 223 C33 90 138 -15 273 -15 C359 -15 425 28 463 93 C500 28 567 -15 653 -15 C748 -15 825 37 864 111 L777 150 C756 111 710 79 653 79 C579 79 522 132 514 206 L881 206 C881 206 883 219 883 233 L883 233 Z M650 374 C714 374 759 339 777 280 L522 280 C541 339 590 374 650 374 L650 374 Z M273 82 C194 82 133 144 133 223 C133 301 194 364 273 364 C351 364 413 301 413 223 C413 144 351 82 273 82 L273 82 Z " />
<glyph glyph-name="Racute" unicode="&#x154;" horiz-adv-x="575" d="M367 915 L267 915 L244 775 L333 775 L367 915 Z M444 0 L575 0 L344 307 C438 333 495 411 495 504 C495 617 409 710 275 710 L80 710 L80 0 L190 0 L190 298 L227 298 L444 0 Z M190 614 L260 614 C338 614 388 564 388 498 C388 432 338 382 260 382 L190 382 L190 614 Z " />
<glyph glyph-name="racute" unicode="&#x155;" horiz-adv-x="398" d="M298 695 L198 695 L175 555 L264 555 L298 695 Z M274 460 C229 460 197 439 163 391 L160 445 L65 445 L65 0 L165 0 L165 290 C193 349 218 369 248 369 C274 369 292 354 307 324 L398 361 C375 422 336 460 274 460 L274 460 Z " />
<glyph glyph-name="Rcommaaccent" unicode="&#x156;" horiz-adv-x="575" d="M344 307 C438 333 495 411 495 504 C495 617 409 710 275 710 L80 710 L80 0 L190 0 L190 298 L227 298 L444 0 L575 0 L344 307 Z M190 614 L260 614 C338 614 388 564 388 498 C388 432 338 382 260 382 L190 382 L190 614 Z M239 -205 L328 -205 L362 -65 L262 -65 L239 -205 Z " />
<glyph glyph-name="rcommaaccent" unicode="&#x157;" horiz-adv-x="398" d="M274 460 C229 460 197 439 163 391 L160 445 L65 445 L65 0 L165 0 L165 290 C193 349 218 369 248 369 C274 369 292 354 307 324 L398 361 C375 422 336 460 274 460 L274 460 Z M42 -205 L131 -205 L165 -65 L65 -65 L42 -205 Z " />
<glyph glyph-name="Rcaron" unicode="&#x158;" horiz-adv-x="575" d="M345 775 L420 915 L342 915 L288 828 L234 915 L155 915 L230 775 L345 775 Z M444 0 L575 0 L344 307 C438 333 495 411 495 504 C495 617 409 710 275 710 L80 710 L80 0 L190 0 L190 298 L227 298 L444 0 Z M190 614 L260 614 C338 614 388 564 388 498 C388 432 338 382 260 382 L190 382 L190 614 Z " />
<glyph glyph-name="rcaron" unicode="&#x159;" horiz-adv-x="398" d="M276 555 L351 695 L273 695 L219 608 L165 695 L86 695 L161 555 L276 555 Z M274 460 C229 460 197 439 163 391 L160 445 L65 445 L65 0 L165 0 L165 290 C193 349 218 369 248 369 C274 369 292 354 307 324 L398 361 C375 422 336 460 274 460 L274 460 Z " />
<glyph glyph-name="Sacute" unicode="&#x15a;" horiz-adv-x="535" d="M235 775 L324 775 L358 915 L258 915 L235 775 Z M272 -15 C410 -15 495 77 495 190 C495 304 410 361 297 414 C219 451 170 487 170 540 C170 591 211 630 281 630 C361 630 412 575 412 575 L475 651 C475 651 400 725 279 725 C145 725 60 646 60 539 C60 433 140 372 250 320 C333 280 385 246 385 186 C385 129 344 81 270 81 C175 81 106 169 106 169 L35 104 C35 104 115 -15 272 -15 L272 -15 Z " />
<glyph glyph-name="sacute" unicode="&#x15b;" horiz-adv-x="382" d="M158 554 L247 554 L281 694 L181 694 L158 554 Z M198 -15 C287 -15 350 43 350 122 C350 196 294 237 219 269 C170 289 147 307 147 336 C147 360 165 380 204 380 C253 380 292 343 292 343 L342 409 C342 409 291 460 202 460 C114 460 51 407 51 332 C51 263 104 220 176 190 C229 167 254 148 254 116 C254 89 236 66 197 66 C136 66 88 124 88 124 L32 67 C32 67 87 -15 198 -15 L198 -15 Z " />
<glyph glyph-name="Scedilla" unicode="&#x15e;" horiz-adv-x="535" d="M495 190 C495 304 410 361 297 414 C219 451 170 487 170 540 C170 591 211 630 281 630 C361 630 412 575 412 575 L475 651 C475 651 400 725 279 725 C145 725 60 646 60 539 C60 433 140 372 250 320 C333 280 385 246 385 186 C385 129 344 81 270 81 C175 81 106 169 106 169 L35 104 C35 104 105 0 242 -14 L207 -87 L237 -106 C237 -106 250 -96 268 -96 C290 -96 307 -108 307 -128 C307 -151 288 -165 261 -165 C226 -165 202 -144 202 -144 L177 -189 C177 -189 213 -220 268 -220 C338 -220 377 -177 377 -130 C377 -86 344 -47 285 -46 L299 -14 C421 -3 495 85 495 190 L495 190 Z " />
<glyph glyph-name="scedilla" unicode="&#x15f;" horiz-adv-x="382" d="M350 122 C350 196 294 237 219 269 C170 289 147 307 147 336 C147 360 165 380 204 380 C253 380 292 343 292 343 L342 409 C342 409 291 460 202 460 C114 460 51 407 51 332 C51 263 104 220 176 190 C229 167 254 148 254 116 C254 89 236 66 197 66 C136 66 88 124 88 124 L32 67 C32 67 77 -1 169 -13 L133 -87 L163 -106 C163 -106 176 -96 194 -96 C216 -96 233 -108 233 -128 C233 -151 214 -165 187 -165 C152 -165 128 -144 128 -144 L103 -189 C103 -189 139 -220 194 -220 C264 -220 303 -177 303 -130 C303 -86 270 -47 211 -46 L225 -13 C300 -3 350 51 350 122 L350 122 Z " />
<glyph glyph-name="Scaron" unicode="&#x160;" horiz-adv-x="535" d="M146 915 L221 775 L336 775 L411 915 L333 915 L279 828 L225 915 L146 915 Z M272 -15 C410 -15 495 77 495 190 C495 304 410 361 297 414 C219 451 170 487 170 540 C170 591 211 630 281 630 C361 630 412 575 412 575 L475 651 C475 651 400 725 279 725 C145 725 60 646 60 539 C60 433 140 372 250 320 C333 280 385 246 385 186 C385 129 344 81 270 81 C175 81 106 169 106 169 L35 104 C35 104 115 -15 272 -15 L272 -15 Z " />
<glyph glyph-name="scaron" unicode="&#x161;" horiz-adv-x="382" d="M69 694 L144 554 L259 554 L334 694 L256 694 L202 607 L148 694 L69 694 Z M198 -15 C287 -15 350 43 350 122 C350 196 294 237 219 269 C170 289 147 307 147 336 C147 360 165 380 204 380 C253 380 292 343 292 343 L342 409 C342 409 291 460 202 460 C114 460 51 407 51 332 C51 263 104 220 176 190 C229 167 254 148 254 116 C254 89 236 66 197 66 C136 66 88 124 88 124 L32 67 C32 67 87 -15 198 -15 L198 -15 Z " />
<glyph glyph-name="uni0162" unicode="&#x162;" horiz-adv-x="520" d="M315 0 L315 606 L505 606 L505 710 L15 710 L15 606 L205 606 L205 0 L237 0 L195 -87 L225 -106 C225 -106 238 -96 256 -96 C278 -96 295 -108 295 -128 C295 -151 276 -165 249 -165 C214 -165 190 -144 190 -144 L165 -189 C165 -189 201 -220 256 -220 C326 -220 365 -177 365 -130 C365 -86 332 -47 273 -46 L293 0 L315 0 Z " />
<glyph glyph-name="uni0163" unicode="&#x163;" horiz-adv-x="350" d="M215 0 L215 352 L325 352 L325 446 L215 446 L215 665 L115 665 L115 446 L25 446 L25 352 L115 352 L115 0 L142 0 L100 -87 L130 -106 C130 -106 143 -96 161 -96 C183 -96 200 -108 200 -128 C200 -151 181 -165 154 -165 C119 -165 95 -144 95 -144 L70 -189 C70 -189 106 -220 161 -220 C231 -220 270 -177 270 -130 C270 -86 237 -47 178 -46 L198 0 L215 0 Z " />
<glyph glyph-name="Tcaron" unicode="&#x164;" horiz-adv-x="520" d="M317 775 L392 915 L314 915 L260 828 L206 915 L127 915 L202 775 L317 775 Z M505 710 L15 710 L15 606 L205 606 L205 0 L315 0 L315 606 L505 606 L505 710 Z " />
<glyph glyph-name="tcaron" unicode="&#x165;" horiz-adv-x="403" d="M286 710 L264 505 L354 505 L388 710 L286 710 Z M215 665 L115 665 L115 446 L25 446 L25 352 L115 352 L115 0 L215 0 L215 352 L325 352 L325 446 L215 446 L215 665 Z " />
<glyph glyph-name="Tbar" unicode="&#x166;" horiz-adv-x="520" d="M505 606 L505 710 L15 710 L15 606 L205 606 L205 372 L60 372 L60 318 L205 318 L205 0 L315 0 L315 318 L460 318 L460 372 L315 372 L315 606 L505 606 Z " />
<glyph glyph-name="tbar" unicode="&#x167;" horiz-adv-x="350" d="M325 352 L325 446 L215 446 L215 665 L115 665 L115 446 L25 446 L25 352 L115 352 L115 237 L25 237 L25 183 L115 183 L115 0 L215 0 L215 183 L325 183 L325 237 L215 237 L215 352 L325 352 Z " />
<glyph glyph-name="Utilde" unicode="&#x168;" horiz-adv-x="655" d="M195 817 C195 817 215 836 251 836 C312 836 342 807 404 807 C439 807 460 830 460 830 L460 894 C460 894 439 875 404 875 C342 875 312 904 251 904 C215 904 195 881 195 881 L195 817 Z M328 -15 C479 -15 583 89 583 253 L583 710 L473 710 L473 255 C473 157 415 94 328 94 C240 94 183 157 183 255 L183 710 L73 710 L73 253 C73 89 176 -15 328 -15 L328 -15 Z " />
<glyph glyph-name="utilde" unicode="&#x169;" horiz-adv-x="490" d="M111 597 C111 597 131 616 167 616 C228 616 258 587 320 587 C355 587 376 610 376 610 L376 674 C376 674 355 655 320 655 C258 655 228 684 167 684 C131 684 111 661 111 661 L111 597 Z M245 -15 C353 -15 433 60 433 173 L433 445 L333 445 L333 171 C333 117 296 83 245 83 C194 83 158 117 158 171 L158 445 L58 445 L58 173 C58 60 138 -15 245 -15 L245 -15 Z " />
<glyph glyph-name="Umacron" unicode="&#x16a;" horiz-adv-x="655" d="M195 821 L460 821 L460 890 L195 890 L195 821 Z M328 -15 C479 -15 583 89 583 253 L583 710 L473 710 L473 255 C473 157 415 94 328 94 C240 94 183 157 183 255 L183 710 L73 710 L73 253 C73 89 176 -15 328 -15 L328 -15 Z " />
<glyph glyph-name="umacron" unicode="&#x16b;" horiz-adv-x="490" d="M111 601 L376 601 L376 670 L111 670 L111 601 Z M245 -15 C353 -15 433 60 433 173 L433 445 L333 445 L333 171 C333 117 296 83 245 83 C194 83 158 117 158 171 L158 445 L58 445 L58 173 C58 60 138 -15 245 -15 L245 -15 Z " />
<glyph glyph-name="Ubreve" unicode="&#x16c;" horiz-adv-x="655" d="M195 915 C195 830 247 775 328 775 C409 775 460 830 460 915 L386 915 C386 866 364 838 328 838 C292 838 269 866 269 915 L195 915 Z M328 -15 C479 -15 583 89 583 253 L583 710 L473 710 L473 255 C473 157 415 94 328 94 C240 94 183 157 183 255 L183 710 L73 710 L73 253 C73 89 176 -15 328 -15 L328 -15 Z " />
<glyph glyph-name="ubreve" unicode="&#x16d;" horiz-adv-x="490" d="M111 695 C111 610 163 555 244 555 C325 555 376 610 376 695 L302 695 C302 646 280 618 244 618 C208 618 185 646 185 695 L111 695 Z M245 -15 C353 -15 433 60 433 173 L433 445 L333 445 L333 171 C333 117 296 83 245 83 C194 83 158 117 158 171 L158 445 L58 445 L58 173 C58 60 138 -15 245 -15 L245 -15 Z " />
<glyph glyph-name="Uring" unicode="&#x16e;" horiz-adv-x="655" d="M328 710 C388 710 434 756 434 815 C434 874 388 920 328 920 C268 920 221 874 221 815 C221 756 268 710 328 710 L328 710 Z M328 766 C301 766 279 788 279 815 C279 842 301 864 328 864 C355 864 377 842 377 815 C377 788 355 766 328 766 L328 766 Z M328 -15 C479 -15 583 89 583 253 L583 710 L473 710 L473 255 C473 157 415 94 328 94 C240 94 183 157 183 255 L183 710 L73 710 L73 253 C73 89 176 -15 328 -15 L328 -15 Z " />
<glyph glyph-name="uring" unicode="&#x16f;" horiz-adv-x="490" d="M244 490 C304 490 350 536 350 595 C350 654 304 700 244 700 C184 700 137 654 137 595 C137 536 184 490 244 490 L244 490 Z M244 546 C217 546 195 568 195 595 C195 622 217 644 244 644 C271 644 293 622 293 595 C293 568 271 546 244 546 L244 546 Z M245 -15 C353 -15 433 60 433 173 L433 445 L333 445 L333 171 C333 117 296 83 245 83 C194 83 158 117 158 171 L158 445 L58 445 L58 173 C58 60 138 -15 245 -15 L245 -15 Z " />
<glyph glyph-name="Uhungarumlaut" unicode="&#x170;" horiz-adv-x="655" d="M216 775 L295 775 L329 915 L239 915 L216 775 Z M361 775 L440 775 L474 915 L384 915 L361 775 Z M328 -15 C479 -15 583 89 583 253 L583 710 L473 710 L473 255 C473 157 415 94 328 94 C240 94 183 157 183 255 L183 710 L73 710 L73 253 C73 89 176 -15 328 -15 L328 -15 Z " />
<glyph glyph-name="uhungarumlaut" unicode="&#x171;" horiz-adv-x="490" d="M132 555 L211 555 L245 695 L155 695 L132 555 Z M277 555 L356 555 L390 695 L300 695 L277 555 Z M245 -15 C353 -15 433 60 433 173 L433 445 L333 445 L333 171 C333 117 296 83 245 83 C194 83 158 117 158 171 L158 445 L58 445 L58 173 C58 60 138 -15 245 -15 L245 -15 Z " />
<glyph glyph-name="Uogonek" unicode="&#x172;" horiz-adv-x="655" d="M473 710 L473 255 C473 157 415 94 328 94 C240 94 183 157 183 255 L183 710 L73 710 L73 253 C73 100 162 0 297 -14 C260 -41 232 -77 232 -123 C232 -183 277 -225 342 -225 C411 -225 449 -172 449 -172 L409 -123 C409 -123 385 -152 350 -152 C324 -152 304 -135 304 -106 C304 -72 336 -44 390 -9 C507 16 583 112 583 253 L583 710 L473 710 Z " />
<glyph glyph-name="uogonek" unicode="&#x173;" horiz-adv-x="490" d="M333 445 L333 171 C333 117 296 83 245 83 C194 83 158 117 158 171 L158 445 L58 445 L58 173 C58 70 124 -1 216 -13 C179 -41 150 -76 150 -123 C150 -183 195 -225 260 -225 C329 -225 367 -172 367 -172 L327 -123 C327 -123 303 -152 268 -152 C242 -152 222 -135 222 -106 C222 -70 257 -41 317 -3 C387 23 433 87 433 173 L433 445 L333 445 Z " />
<glyph glyph-name="Wcircumflex" unicode="&#x174;" horiz-adv-x="1040" d="M525 862 L579 775 L657 775 L582 915 L467 915 L392 775 L471 775 L525 862 Z M1030 710 L919 710 L734 223 L525 725 L317 225 L132 710 L10 710 L300 -35 L520 483 L740 -35 L1030 710 Z " />
<glyph glyph-name="wcircumflex" unicode="&#x175;" horiz-adv-x="695" d="M353 597 L407 510 L485 510 L410 650 L295 650 L220 510 L299 510 L353 597 Z M690 445 L589 445 L478 175 L353 455 L228 175 L117 445 L5 445 L215 -35 L348 251 L480 -35 L690 445 Z " />
<glyph glyph-name="Ycircumflex" unicode="&#x176;" horiz-adv-x="600" d="M172 775 L251 775 L305 862 L359 775 L437 775 L362 915 L247 915 L172 775 Z M245 0 L355 0 L355 343 L600 710 L480 710 L305 451 L130 710 L0 710 L245 343 L245 0 Z " />
<glyph glyph-name="ycircumflex" unicode="&#x177;" horiz-adv-x="460" d="M235 597 L289 510 L367 510 L292 650 L177 650 L102 510 L181 510 L235 597 Z M354 445 L234 146 L117 445 L5 445 L180 24 L77 -220 L179 -220 L455 445 L354 445 Z " />
<glyph glyph-name="Ydieresis" unicode="&#x178;" horiz-adv-x="600" d="M222 790 C254 790 277 814 277 845 C277 877 254 900 222 900 C191 900 167 877 167 845 C167 814 191 790 222 790 L222 790 Z M387 790 C419 790 442 814 442 845 C442 877 419 900 387 900 C356 900 332 877 332 845 C332 814 356 790 387 790 L387 790 Z M245 0 L355 0 L355 343 L600 710 L480 710 L305 451 L130 710 L0 710 L245 343 L245 0 Z " />
<glyph glyph-name="Zacute" unicode="&#x179;" horiz-adv-x="675" d="M294 775 L383 775 L417 915 L317 915 L294 775 Z M40 0 L625 0 L625 102 L232 102 L635 710 L50 710 L50 609 L443 609 L40 0 Z " />
<glyph glyph-name="zacute" unicode="&#x17a;" horiz-adv-x="430" d="M176 510 L265 510 L299 650 L199 650 L176 510 Z M28 0 L393 0 L393 89 L185 89 L403 445 L38 445 L38 356 L246 356 L28 0 Z " />
<glyph glyph-name="Zdotaccent" unicode="&#x17b;" horiz-adv-x="675" d="M338 790 C370 790 393 814 393 845 C393 877 370 900 338 900 C307 900 283 877 283 845 C283 814 307 790 338 790 L338 790 Z M40 0 L625 0 L625 102 L232 102 L635 710 L50 710 L50 609 L443 609 L40 0 Z " />
<glyph glyph-name="zdotaccent" unicode="&#x17c;" horiz-adv-x="430" d="M220 525 C252 525 275 549 275 580 C275 612 252 635 220 635 C189 635 165 612 165 580 C165 549 189 525 220 525 L220 525 Z M28 0 L393 0 L393 89 L185 89 L403 445 L38 445 L38 356 L246 356 L28 0 Z " />
<glyph glyph-name="Zcaron" unicode="&#x17d;" horiz-adv-x="675" d="M205 915 L280 775 L395 775 L470 915 L392 915 L338 828 L284 915 L205 915 Z M40 0 L625 0 L625 102 L232 102 L635 710 L50 710 L50 609 L443 609 L40 0 Z " />
<glyph glyph-name="zcaron" unicode="&#x17e;" horiz-adv-x="430" d="M87 650 L162 510 L277 510 L352 650 L274 650 L220 563 L166 650 L87 650 Z M28 0 L393 0 L393 89 L185 89 L403 445 L38 445 L38 356 L246 356 L28 0 Z " />
<glyph glyph-name="florin" unicode="&#x192;" horiz-adv-x="580" d="M384 629 C423 629 439 599 459 545 L555 566 C521 673 470 725 380 725 C254 725 206 615 203 280 L58 280 L58 231 L203 231 C203 -53 187 -139 127 -139 C87 -139 71 -109 52 -55 L-45 -76 C-11 -183 40 -235 130 -235 C259 -235 307 -120 308 231 L453 231 L453 280 L308 280 C309 547 325 629 384 629 L384 629 Z " />
<glyph glyph-name="Aringacute" unicode="&#x1fa;" horiz-adv-x="720" d="M603 0 L730 0 L393 698 C437 711 467 750 467 798 C467 837 447 871 415 889 L439 970 L339 970 L325 897 C283 883 254 844 254 798 C254 744 293 701 345 694 L10 0 L127 0 L218 197 L514 197 L603 0 Z M312 798 C312 825 334 847 361 847 C388 847 410 825 410 798 C410 771 388 749 361 749 C334 749 312 771 312 798 L312 798 Z M262 291 L368 521 L472 291 L262 291 Z " />
<glyph glyph-name="aringacute" unicode="&#x1fb;" horiz-adv-x="578" d="M418 445 L415 376 C399 401 379 421 354 436 C380 455 396 485 396 520 C396 559 376 593 344 611 L368 693 L268 693 L254 619 C212 605 183 566 183 520 C183 495 192 472 206 454 C105 430 33 337 33 223 C33 90 131 -15 258 -15 C330 -15 382 18 415 70 L418 0 L513 0 L513 445 L418 445 Z M290 569 C317 569 339 547 339 520 C339 493 317 471 290 471 C263 471 241 493 241 520 C241 547 263 569 290 569 L290 569 Z M273 82 C194 82 133 144 133 223 C133 301 194 364 273 364 C351 364 413 301 413 223 C413 144 351 82 273 82 L273 82 Z " />
<glyph glyph-name="AEacute" unicode="&#x1fc;" horiz-adv-x="915" d="M681 915 L581 915 L558 775 L647 775 L681 915 Z M681 102 L574 322 L865 322 L865 416 L529 416 L436 609 L840 609 L840 710 L354 710 L10 0 L127 0 L218 197 L514 197 L603 0 L870 0 L870 102 L681 102 Z M262 291 L368 521 L472 291 L262 291 Z " />
<glyph glyph-name="aeacute" unicode="&#x1fd;" horiz-adv-x="915" d="M542 650 L442 650 L419 510 L508 510 L542 650 Z M883 233 C883 358 790 460 665 460 C594 460 543 428 511 377 L508 445 L418 445 L415 376 C382 428 330 460 258 460 C131 460 33 356 33 223 C33 90 131 -15 258 -15 C330 -15 382 18 415 70 L418 0 L508 0 L512 70 C543 18 595 -15 668 -15 C753 -15 825 37 864 111 L777 150 C756 111 710 79 653 79 C579 79 522 132 514 206 L881 206 C881 206 883 219 883 233 L883 233 Z M650 374 C714 374 760 340 777 280 L521 280 C540 340 589 374 650 374 L650 374 Z M273 82 C194 82 133 144 133 223 C133 301 194 364 273 364 C351 364 413 301 413 223 C413 144 351 82 273 82 L273 82 Z " />
<glyph glyph-name="Oslashacute" unicode="&#x1fe;" horiz-adv-x="825" d="M492 915 L392 915 L369 775 L458 775 L492 915 Z M785 710 L717 710 L652 641 C587 694 505 725 413 725 C203 725 40 563 40 355 C40 256 77 168 138 102 L40 0 L109 0 L174 68 C238 16 321 -15 413 -15 C622 -15 785 147 785 355 C785 454 748 542 687 608 L785 710 Z M148 355 C148 506 263 624 413 624 C477 624 534 602 580 566 L211 179 C171 226 148 287 148 355 L148 355 Z M678 355 C678 204 562 87 413 87 C349 87 291 108 246 144 L615 531 C654 484 678 423 678 355 L678 355 Z " />
<glyph glyph-name="oslashacute" unicode="&#x1ff;" horiz-adv-x="545" d="M352 695 L252 695 L229 555 L318 555 L352 695 Z M513 445 L447 445 L418 413 C378 443 328 460 273 460 C138 460 33 356 33 223 C33 162 55 106 93 64 L33 0 L99 0 L129 32 C168 2 218 -15 273 -15 C407 -15 513 90 513 223 C513 284 491 339 453 381 L513 445 Z M128 223 C128 304 191 369 273 369 C303 369 331 360 354 345 L157 134 C139 158 128 189 128 223 L128 223 Z M418 223 C418 141 354 77 273 77 C243 77 215 86 193 101 L389 311 C407 287 418 256 418 223 L418 223 Z " />
<glyph glyph-name="Scommaaccent" unicode="&#x218;" horiz-adv-x="535" d="M272 -15 C410 -15 495 77 495 190 C495 304 410 361 297 414 C219 451 170 487 170 540 C170 591 211 630 281 630 C361 630 412 575 412 575 L475 651 C475 651 400 725 279 725 C145 725 60 646 60 539 C60 433 140 372 250 320 C333 280 385 246 385 186 C385 129 344 81 270 81 C175 81 106 169 106 169 L35 104 C35 104 115 -15 272 -15 L272 -15 Z M199 -205 L288 -205 L322 -65 L222 -65 L199 -205 Z " />
<glyph glyph-name="scommaaccent" unicode="&#x219;" horiz-adv-x="382" d="M198 -15 C287 -15 350 43 350 122 C350 196 294 237 219 269 C170 289 147 307 147 336 C147 360 165 380 204 380 C253 380 292 343 292 343 L342 409 C342 409 291 460 202 460 C114 460 51 407 51 332 C51 263 104 220 176 190 C229 167 254 148 254 116 C254 89 236 66 197 66 C136 66 88 124 88 124 L32 67 C32 67 87 -15 198 -15 L198 -15 Z M125 -205 L214 -205 L248 -65 L148 -65 L125 -205 Z " />
<glyph glyph-name="uni021A" unicode="&#x21a;" horiz-adv-x="520" d="M505 710 L15 710 L15 606 L205 606 L205 0 L315 0 L315 606 L505 606 L505 710 Z M187 -205 L276 -205 L310 -65 L210 -65 L187 -205 Z " />
<glyph glyph-name="uni021B" unicode="&#x21b;" horiz-adv-x="350" d="M325 446 L215 446 L215 665 L115 665 L115 446 L25 446 L25 352 L115 352 L115 0 L215 0 L215 352 L325 352 L325 446 Z M92 -205 L181 -205 L215 -65 L115 -65 L92 -205 Z " />
<glyph glyph-name="circumflex" unicode="&#x2c6;" horiz-adv-x="600" d="M70 570 L149 570 L203 657 L257 570 L335 570 L260 710 L145 710 L70 570 Z " />
<glyph glyph-name="caron" unicode="&#x2c7;" horiz-adv-x="600" d="M70 710 L145 570 L260 570 L335 710 L257 710 L203 623 L149 710 L70 710 Z " />
<glyph glyph-name="breve" unicode="&#x2d8;" horiz-adv-x="600" d="M70 710 C70 625 122 570 203 570 C284 570 335 625 335 710 L261 710 C261 661 239 633 203 633 C167 633 144 661 144 710 L70 710 Z " />
<glyph glyph-name="dotaccent" unicode="&#x2d9;" horiz-adv-x="600" d="M125 585 C157 585 180 609 180 640 C180 672 157 695 125 695 C94 695 70 672 70 640 C70 609 94 585 125 585 L125 585 Z " />
<glyph glyph-name="ring" unicode="&#x2da;" horiz-adv-x="600" d="M172 505 C232 505 278 551 278 610 C278 669 232 715 172 715 C112 715 65 669 65 610 C65 551 112 505 172 505 L172 505 Z M172 561 C145 561 123 583 123 610 C123 637 145 659 172 659 C199 659 221 637 221 610 C221 583 199 561 172 561 L172 561 Z " />
<glyph glyph-name="ogonek" unicode="&#x2db;" horiz-adv-x="600" d="M180 -225 C249 -225 287 -172 287 -172 L247 -123 C247 -123 223 -152 188 -152 C162 -152 142 -135 142 -106 C142 -69 179 -40 241 0 L172 10 C119 -20 70 -62 70 -123 C70 -183 115 -225 180 -225 L180 -225 Z " />
<glyph glyph-name="tilde" unicode="&#x2dc;" horiz-adv-x="600" d="M60 612 C60 612 80 631 116 631 C177 631 207 602 269 602 C304 602 325 625 325 625 L325 689 C325 689 304 670 269 670 C207 670 177 699 116 699 C80 699 60 676 60 676 L60 612 Z " />
<glyph glyph-name="hungarumlaut" unicode="&#x2dd;" horiz-adv-x="600" d="M70 570 L149 570 L183 710 L93 710 L70 570 Z M215 570 L294 570 L328 710 L238 710 L215 570 Z " />
<glyph glyph-name="gravecomb" unicode="&#x300;" d="M-70 570 L-93 710 L-193 710 L-159 570 L-70 570 Z " />
<glyph glyph-name="acutecomb" unicode="&#x301;" d="M-193 570 L-104 570 L-70 710 L-170 710 L-193 570 Z " />
<glyph glyph-name="uni0302" unicode="&#x302;" d="M-335 570 L-256 570 L-202 657 L-148 570 L-70 570 L-145 710 L-260 710 L-335 570 Z " />
<glyph glyph-name="tildecomb" unicode="&#x303;" d="M-325 612 C-325 612 -305 631 -269 631 C-208 631 -178 602 -116 602 C-81 602 -60 625 -60 625 L-60 689 C-60 689 -81 670 -116 670 C-178 670 -208 699 -269 699 C-305 699 -325 676 -325 676 L-325 612 Z " />
<glyph glyph-name="uni0304" unicode="&#x304;" d="M-325 616 L-60 616 L-60 685 L-325 685 L-325 616 Z " />
<glyph glyph-name="uni0306" unicode="&#x306;" d="M-335 710 C-335 625 -283 570 -202 570 C-121 570 -70 625 -70 710 L-144 710 C-144 661 -166 633 -202 633 C-238 633 -261 661 -261 710 L-335 710 Z " />
<glyph glyph-name="uni0307" unicode="&#x307;" d="M-125 585 C-93 585 -70 609 -70 640 C-70 672 -93 695 -125 695 C-156 695 -180 672 -180 640 C-180 609 -156 585 -125 585 L-125 585 Z " />
<glyph glyph-name="uni0308" unicode="&#x308;" d="M-290 585 C-258 585 -235 609 -235 640 C-235 672 -258 695 -290 695 C-321 695 -345 672 -345 640 C-345 609 -321 585 -290 585 L-290 585 Z M-125 585 C-93 585 -70 609 -70 640 C-70 672 -93 695 -125 695 C-156 695 -180 672 -180 640 C-180 609 -156 585 -125 585 L-125 585 Z " />
<glyph glyph-name="uni030A" unicode="&#x30a;" d="M-171 505 C-111 505 -65 551 -65 610 C-65 669 -111 715 -171 715 C-231 715 -278 669 -278 610 C-278 551 -231 505 -171 505 L-171 505 Z M-171 561 C-198 561 -220 583 -220 610 C-220 637 -198 659 -171 659 C-144 659 -122 637 -122 610 C-122 583 -144 561 -171 561 L-171 561 Z " />
<glyph glyph-name="uni030B" unicode="&#x30b;" d="M-328 570 L-249 570 L-215 710 L-305 710 L-328 570 Z M-183 570 L-104 570 L-70 710 L-160 710 L-183 570 Z " />
<glyph glyph-name="uni030C" unicode="&#x30c;" d="M-335 710 L-260 570 L-145 570 L-70 710 L-148 710 L-202 623 L-256 710 L-335 710 Z " />
<glyph glyph-name="uni0312" unicode="&#x312;" d="M-70 710 L-159 710 L-193 570 L-93 570 L-70 710 Z " />
<glyph glyph-name="uni0326" unicode="&#x326;" d="M-193 -220 L-104 -220 L-70 -80 L-170 -80 L-193 -220 Z " />
<glyph glyph-name="uni0327" unicode="&#x327;" d="M-162 -46 L-142 0 L-198 0 L-240 -87 L-210 -106 C-210 -106 -197 -96 -179 -96 C-157 -96 -140 -108 -140 -128 C-140 -151 -159 -165 -186 -165 C-221 -165 -245 -144 -245 -144 L-270 -189 C-270 -189 -234 -220 -179 -220 C-109 -220 -70 -177 -70 -130 C-70 -86 -103 -47 -162 -46 L-162 -46 Z " />
<glyph glyph-name="uni0328" unicode="&#x328;" d="M-177 -225 C-108 -225 -70 -172 -70 -172 L-110 -123 C-110 -123 -134 -152 -169 -152 C-195 -152 -215 -135 -215 -106 C-215 -69 -178 -40 -116 0 L-185 10 C-238 -20 -287 -62 -287 -123 C-287 -183 -242 -225 -177 -225 L-177 -225 Z " />
<glyph glyph-name="uni0394" unicode="&#x394;" horiz-adv-x="720" d="M360 745 L10 0 L710 0 L360 745 Z M169 94 L358 519 L542 94 L169 94 Z " />
<glyph glyph-name="uni03A9" unicode="&#x3a9;" horiz-adv-x="825" d="M785 365 C785 568 622 725 413 725 C203 725 40 568 40 365 C40 247 92 156 175 99 L50 99 L50 0 L323 0 L323 99 C220 135 150 235 150 355 C150 505 265 621 413 621 C561 621 675 505 675 355 C675 235 605 135 503 99 L503 0 L775 0 L775 99 L650 99 C733 156 785 247 785 365 L785 365 Z " />
<glyph glyph-name="uni03BC" unicode="&#x3bc;" horiz-adv-x="498" d="M340 445 L340 171 C340 117 304 83 253 83 C202 83 165 117 165 171 L165 445 L65 445 L65 -220 L165 -220 L165 18 C191 -3 224 -15 263 -15 C363 -15 440 60 440 173 L440 445 L340 445 Z " />
<glyph glyph-name="pi" unicode="&#x3c0;" horiz-adv-x="605" d="M580 446 L25 446 L25 352 L115 352 L115 0 L215 0 L215 352 L390 352 L390 0 L490 0 L490 352 L580 352 L580 446 Z " />
<glyph glyph-name="Wgrave" unicode="&#x1e80;" horiz-adv-x="1040" d="M569 775 L546 915 L446 915 L480 775 L569 775 Z M1030 710 L919 710 L734 223 L525 725 L317 225 L132 710 L10 710 L300 -35 L520 483 L740 -35 L1030 710 Z " />
<glyph glyph-name="wgrave" unicode="&#x1e81;" horiz-adv-x="695" d="M397 510 L374 650 L274 650 L308 510 L397 510 Z M690 445 L589 445 L478 175 L353 455 L228 175 L117 445 L5 445 L215 -35 L348 251 L480 -35 L690 445 Z " />
<glyph glyph-name="Wacute" unicode="&#x1e82;" horiz-adv-x="1040" d="M604 915 L504 915 L481 775 L570 775 L604 915 Z M1030 710 L919 710 L734 223 L525 725 L317 225 L132 710 L10 710 L300 -35 L520 483 L740 -35 L1030 710 Z " />
<glyph glyph-name="wacute" unicode="&#x1e83;" horiz-adv-x="695" d="M432 650 L332 650 L309 510 L398 510 L432 650 Z M690 445 L589 445 L478 175 L353 455 L228 175 L117 445 L5 445 L215 -35 L348 251 L480 -35 L690 445 Z " />
<glyph glyph-name="Wdieresis" unicode="&#x1e84;" horiz-adv-x="1040" d="M442 790 C474 790 497 814 497 845 C497 877 474 900 442 900 C411 900 387 877 387 845 C387 814 411 790 442 790 L442 790 Z M607 790 C639 790 662 814 662 845 C662 877 639 900 607 900 C576 900 552 877 552 845 C552 814 576 790 607 790 L607 790 Z M1030 710 L919 710 L734 223 L525 725 L317 225 L132 710 L10 710 L300 -35 L520 483 L740 -35 L1030 710 Z " />
<glyph glyph-name="wdieresis" unicode="&#x1e85;" horiz-adv-x="695" d="M270 525 C302 525 325 549 325 580 C325 612 302 635 270 635 C239 635 215 612 215 580 C215 549 239 525 270 525 L270 525 Z M435 525 C467 525 490 549 490 580 C490 612 467 635 435 635 C404 635 380 612 380 580 C380 549 404 525 435 525 L435 525 Z M690 445 L589 445 L478 175 L353 455 L228 175 L117 445 L5 445 L215 -35 L348 251 L480 -35 L690 445 Z " />
<glyph glyph-name="Ygrave" unicode="&#x1ef2;" horiz-adv-x="600" d="M349 775 L326 915 L226 915 L260 775 L349 775 Z M245 0 L355 0 L355 343 L600 710 L480 710 L305 451 L130 710 L0 710 L245 343 L245 0 Z " />
<glyph glyph-name="ygrave" unicode="&#x1ef3;" horiz-adv-x="460" d="M279 510 L256 650 L156 650 L190 510 L279 510 Z M354 445 L234 146 L117 445 L5 445 L180 24 L77 -220 L179 -220 L455 445 L354 445 Z " />
<glyph glyph-name="endash" unicode="&#x2013;" horiz-adv-x="670" d="M60 262 L610 262 L610 356 L60 356 L60 262 Z " />
<glyph glyph-name="emdash" unicode="&#x2014;" horiz-adv-x="900" d="M60 262 L840 262 L840 356 L60 356 L60 262 Z " />
<glyph glyph-name="quoteleft" unicode="&#x2018;" horiz-adv-x="255" d="M195 710 L105 710 L71 440 L172 440 L195 710 Z " />
<glyph glyph-name="quoteright" unicode="&#x2019;" horiz-adv-x="255" d="M60 440 L150 440 L184 710 L83 710 L60 440 Z " />
<glyph glyph-name="quotesinglbase" unicode="&#x201a;" horiz-adv-x="255" d="M60 -150 L150 -150 L184 120 L83 120 L60 -150 Z " />
<glyph glyph-name="quotedblleft" unicode="&#x201c;" horiz-adv-x="453" d="M195 710 L105 710 L71 440 L172 440 L195 710 Z M393 710 L303 710 L269 440 L370 440 L393 710 Z " />
<glyph glyph-name="quotedblright" unicode="&#x201d;" horiz-adv-x="453" d="M60 440 L150 440 L184 710 L83 710 L60 440 Z M258 440 L348 440 L382 710 L281 710 L258 440 Z " />
<glyph glyph-name="quotedblbase" unicode="&#x201e;" horiz-adv-x="453" d="M60 -150 L150 -150 L184 120 L83 120 L60 -150 Z M258 -150 L348 -150 L382 120 L281 120 L258 -150 Z " />
<glyph glyph-name="dagger" unicode="&#x2020;" horiz-adv-x="370" d="M320 601 L225 601 L225 700 L145 700 L145 601 L50 601 L50 532 L145 532 L145 230 L225 230 L225 532 L320 532 L320 601 Z " />
<glyph glyph-name="daggerdbl" unicode="&#x2021;" horiz-adv-x="370" d="M320 532 L320 601 L225 601 L225 700 L145 700 L145 601 L50 601 L50 532 L145 532 L145 399 L50 399 L50 330 L145 330 L145 230 L225 230 L225 330 L320 330 L320 399 L225 399 L225 532 L320 532 Z " />
<glyph glyph-name="bullet" unicode="&#x2022;" horiz-adv-x="320" d="M160 255 C218 255 260 299 260 355 C260 412 218 455 160 455 C102 455 60 412 60 355 C60 299 102 255 160 255 L160 255 Z " />
<glyph glyph-name="ellipsis" unicode="&#x2026;" horiz-adv-x="885" d="M128 -10 C167 -10 195 20 195 58 C195 96 167 125 128 125 C89 125 60 96 60 58 C60 20 89 -10 128 -10 L128 -10 Z M443 -10 C482 -10 510 20 510 58 C510 96 482 125 443 125 C404 125 375 96 375 58 C375 20 404 -10 443 -10 L443 -10 Z M758 -10 C797 -10 825 20 825 58 C825 96 797 125 758 125 C719 125 690 96 690 58 C690 20 719 -10 758 -10 L758 -10 Z " />
<glyph glyph-name="perthousand" unicode="&#x2030;" horiz-adv-x="1290" d="M222 385 C318 385 393 460 393 555 C393 651 318 725 222 725 C125 725 50 651 50 555 C50 460 125 385 222 385 L222 385 Z M215 0 L272 0 L665 710 L609 710 L215 0 Z M222 462 C170 462 129 504 129 555 C129 607 170 648 222 648 C273 648 314 607 314 555 C314 504 273 462 222 462 L222 462 Z M659 -15 C755 -15 830 60 830 155 C830 251 755 325 659 325 C562 325 487 251 487 155 C487 60 562 -15 659 -15 L659 -15 Z M1069 -15 C1165 -15 1240 60 1240 155 C1240 251 1165 325 1069 325 C972 325 897 251 897 155 C897 60 972 -15 1069 -15 L1069 -15 Z M659 62 C607 62 566 104 566 155 C566 207 607 248 659 248 C710 248 751 207 751 155 C751 104 710 62 659 62 L659 62 Z M1069 62 C1017 62 976 104 976 155 C976 207 1017 248 1069 248 C1120 248 1161 207 1161 155 C1161 104 1120 62 1069 62 L1069 62 Z " />
<glyph glyph-name="guilsinglleft" unicode="&#x2039;" horiz-adv-x="385" d="M325 165 L325 249 L188 355 L325 461 L325 545 L60 355 L325 165 Z " />
<glyph glyph-name="guilsinglright" unicode="&#x203a;" horiz-adv-x="385" d="M60 165 L325 355 L60 545 L60 461 L197 355 L60 249 L60 165 Z " />
<glyph glyph-name="fraction" unicode="&#x2044;" horiz-adv-x="120" d="M-165 0 L-109 0 L285 710 L229 710 L-165 0 Z " />
<glyph glyph-name="Euro" unicode="&#x20ac;" horiz-adv-x="545" d="M319 82 C256 82 217 146 205 268 L400 268 L400 317 L202 317 C201 329 201 342 201 355 C201 368 201 381 202 393 L435 393 L435 442 L205 442 C217 565 256 629 319 629 C359 629 389 599 409 545 L505 566 C471 673 407 725 319 725 C199 725 118 631 100 442 L35 442 L35 393 L97 393 C96 381 96 368 96 355 C96 342 96 329 97 317 L35 317 L35 268 L100 268 C118 80 199 -15 319 -15 C407 -15 471 38 505 145 L409 166 C389 112 359 82 319 82 L319 82 Z " />
<glyph glyph-name="trademark" unicode="&#x2122;" horiz-adv-x="560" d="M495 724 L383 558 L271 724 L256 458 L307 458 L314 580 L383 470 L452 580 L458 458 L510 458 L495 724 Z M50 659 L112 659 L112 458 L168 458 L168 659 L231 659 L231 710 L50 710 L50 659 Z " />
<glyph glyph-name="minus" unicode="&#x2212;" horiz-adv-x="545" d="M60 263 L485 263 L485 357 L60 357 L60 263 Z " />
<glyph glyph-name="approxequal" unicode="&#x2248;" horiz-adv-x="545" d="M60 362 C60 362 95 388 150 388 C254 388 289 338 395 338 C450 338 485 368 485 368 L485 454 C485 454 450 427 395 427 C291 427 257 477 150 477 C95 477 60 447 60 447 L60 362 Z M60 167 C60 167 95 193 150 193 C254 193 289 143 395 143 C450 143 485 173 485 173 L485 259 C485 259 450 232 395 232 C291 232 257 282 150 282 C95 282 60 252 60 252 L60 167 Z " />
<glyph glyph-name="notequal" unicode="&#x2260;" horiz-adv-x="545" d="M485 363 L485 452 L358 452 L393 540 L337 540 L302 452 L60 452 L60 363 L266 363 L224 257 L60 257 L60 168 L188 168 L153 80 L208 80 L243 168 L485 168 L485 257 L279 257 L322 363 L485 363 Z " />
<glyph glyph-name="lessequal" unicode="&#x2264;" horiz-adv-x="545" d="M485 235 L485 336 L204 440 L485 543 L485 645 L60 475 L60 405 L485 235 Z M485 87 L485 176 L60 176 L60 87 L485 87 Z " />
<glyph glyph-name="greaterequal" unicode="&#x2265;" horiz-adv-x="545" d="M60 235 L485 405 L485 475 L60 645 L60 543 L341 440 L60 336 L60 235 Z M60 87 L485 87 L485 176 L60 176 L60 87 Z " />
<glyph glyph-name="fi" unicode="&#xfb01;" horiz-adv-x="595" d="M115 579 L115 446 L25 446 L25 352 L115 352 L115 0 L215 0 L215 352 L325 352 L325 446 L215 446 L215 572 C215 627 244 661 296 661 C329 661 350 649 350 649 L350 743 C350 743 328 755 281 755 C179 755 115 689 115 579 L115 579 Z M473 555 C512 555 540 584 540 620 C540 656 512 685 473 685 C434 685 405 656 405 620 C405 584 434 555 473 555 L473 555 Z M423 0 L523 0 L523 445 L423 445 L423 0 Z " />
<glyph glyph-name="fl" unicode="&#xfb02;" horiz-adv-x="595" d="M115 579 L115 446 L25 446 L25 352 L115 352 L115 0 L215 0 L215 352 L325 352 L325 446 L215 446 L215 572 C215 627 244 661 296 661 C329 661 350 649 350 649 L350 743 C350 743 328 755 281 755 C179 755 115 689 115 579 L115 579 Z M423 740 L423 0 L523 0 L523 740 L423 740 Z " />
</font>
</svg>
