<svg xmlns="http://www.w3.org/2000/svg" viewBox="0 0 32.97 32.97"><defs><style>.cls-1{fill:#292d2d;}</style></defs><title>logo-black</title><g id="Layer_2" data-name="Layer 2"><g id="guides"><path class="cls-1" d="M20.62,6.31a4.35,4.35,0,0,0,1.93,3.54,4.52,4.52,0,0,0,2,.73c.38,0,2,.07,1.47-.75-.17-.24-.35-.48-.53-.7a18.5,18.5,0,0,0-3-2.57,11.72,11.72,0,0,0-1.32-.68.45.45,0,0,0-.64.42Z"/><path class="cls-1" d="M12.44,26.11a4.28,4.28,0,0,0-4.58-4.27l-.28,0a.53.53,0,0,0-.4.82,13.66,13.66,0,0,0,.94,1.22,19.38,19.38,0,0,0,3.19,2.51l.37.19a.53.53,0,0,0,.76-.48Z"/><path class="cls-1" d="M25.27,16.76a15.13,15.13,0,0,0-2.71-1.7,24.14,24.14,0,0,0-3-1.13c-1.11-.34-2.17-.68-3.16-1a5.75,5.75,0,0,1-2.24-1.25A3.62,3.62,0,0,1,13.06,9,3.54,3.54,0,0,1,14.41,6a4.32,4.32,0,0,1,1.45-.69A.15.15,0,0,0,15.8,5,11.46,11.46,0,0,0,8.62,8.27a4.28,4.28,0,0,0-1.09,4.41A6.48,6.48,0,0,0,9.86,16a14.27,14.27,0,0,0,2.8,1.63,28.54,28.54,0,0,0,3.49,1.15A18.81,18.81,0,0,1,19.57,20a3.69,3.69,0,0,1,2.5,3.49,4.19,4.19,0,0,1-1.16,3.16.2.2,0,0,0,.21.33,11.52,11.52,0,0,0,5.25-4.5,4.28,4.28,0,0,0-1.07-5.67Z"/><path class="cls-1" d="M16.49,33A16.49,16.49,0,1,1,33,16.49,16.5,16.5,0,0,1,16.49,33Zm0-30.52a14,14,0,1,0,14,14A14.06,14.06,0,0,0,16.49,2.45Z"/></g></g></svg>