<svg xmlns="http://www.w3.org/2000/svg" viewBox="0 0 33.83 33.83"><defs><style>.cls-1{fill:#fff;}</style></defs><title>logo-white</title><g id="Layer_2" data-name="Layer 2"><g id="intro"><path class="cls-1" d="M21.16,6.47a4.46,4.46,0,0,0,2,3.64,4.59,4.59,0,0,0,2.08.75c.39,0,2.1.07,1.51-.77-.17-.25-.35-.49-.54-.73a20.57,20.57,0,0,0-3-2.63A12.29,12.29,0,0,0,21.82,6a.47.47,0,0,0-.66.43Z"/><path class="cls-1" d="M12.76,26.8a4.4,4.4,0,0,0-4.7-4.39l-.28,0a.54.54,0,0,0-.41.84,10.71,10.71,0,0,0,1,1.25,19.43,19.43,0,0,0,3.26,2.59l.39.19a.53.53,0,0,0,.77-.49Z"/><path class="cls-1" d="M25.93,17.2a15.32,15.32,0,0,0-2.78-1.74,22,22,0,0,0-3-1.16c-1.14-.36-2.22-.7-3.24-1A5.86,5.86,0,0,1,14.57,12,3.71,3.71,0,0,1,13.4,9.27a3.66,3.66,0,0,1,1.38-3.15,4.64,4.64,0,0,1,1.49-.7.15.15,0,0,0-.05-.3A11.86,11.86,0,0,0,8.84,8.48,4.45,4.45,0,0,0,7.72,13a6.74,6.74,0,0,0,2.39,3.37A14.83,14.83,0,0,0,13,18.05a29.44,29.44,0,0,0,3.58,1.18,19.26,19.26,0,0,1,3.51,1.26,3.78,3.78,0,0,1,2.56,3.58,4.29,4.29,0,0,1-1.19,3.25.2.2,0,0,0,.22.33A11.77,11.77,0,0,0,27.06,23,4.4,4.4,0,0,0,26,17.22Z"/><path class="cls-1" d="M16.92,33.83A16.92,16.92,0,1,1,33.83,16.92,16.94,16.94,0,0,1,16.92,33.83Zm0-31.31a14.4,14.4,0,1,0,14.4,14.4A14.42,14.42,0,0,0,16.92,2.52Z"/></g></g></svg>